<svg width="140" height="200" viewBox="0 0 140 200" fill="none" xmlns="http://www.w3.org/2000/svg">
<path d="M56.2755 78.52C57.9779 77.2276 59.7076 75.966 61.3776 74.6285C65.223 71.5531 69.0211 68.4137 72.8691 65.3455C74.1692 64.3111 75.5011 63.2977 76.9263 62.4535C83.0418 58.8305 88.9039 60.3092 91.7714 66.8034C93.852 71.5128 94.9619 76.66 96.5189 81.606C97.3312 84.1845 98.1794 86.75 98.9963 89.3187C101.707 97.8394 112.667 100.544 119.47 95.9444C122.558 93.8546 124.898 91.2632 126.339 87.8189C127.058 86.0932 127.781 84.3576 128.701 82.7383C129.502 81.3317 130.783 80.3774 132.522 81.0177C134.222 81.6396 134.575 83.1424 134.445 84.77C134.391 85.4544 134.24 86.141 134.057 86.8067C131.492 96.0463 120.678 105.272 111.152 106.358C100.41 107.581 92.751 103.155 88.8313 93.0986C87.1535 88.7877 86.0646 84.2412 84.6573 79.8251C84.0587 77.9321 83.3255 76.0711 82.557 73.931C81.3732 74.7696 80.2359 75.4212 79.2843 76.2737C75.5257 79.6584 71.854 83.1497 68.0804 86.5155C65.7556 88.5827 63.3267 90.5413 60.8753 92.4594C60.0708 93.0888 59.0656 93.4984 58.1005 93.8612C50.8326 96.6251 44.3008 92.7844 43.7409 85.0561C43.3073 79.058 43.3919 73.0117 43.4914 66.9843C43.6431 58.0519 44.0559 49.123 44.2559 40.1894C44.3007 38.1221 43.9853 36.0463 43.7958 33.982C43.6293 32.1851 42.7325 31.518 40.9815 32.2684C34.3938 35.0961 29.9461 40.0417 27.0903 46.4831C26.8789 46.9564 27.3004 47.859 27.6633 48.4178C28.4397 49.6309 29.5405 50.6625 30.19 51.9292C31.1003 53.7185 30.4136 55.1731 28.4607 55.542C24.5477 56.2823 20.7424 55.9217 17.8399 52.8777C15.0932 49.9966 14.9292 46.3989 16.5155 42.9754C21.2585 32.751 29.1962 26.09 40.1214 23.3425C45.6813 21.946 50.5135 24.5565 52.4672 29.952C53.7504 33.4802 54.5938 37.3204 54.7781 41.0649C55.173 49.0794 54.9722 57.1295 55.0873 65.1554C55.1487 69.5521 55.3549 73.9454 55.4986 78.3449C55.7652 78.387 56.0155 78.4512 56.2755 78.52Z" fill="#0058FF"/>
<path fill-rule="evenodd" clip-rule="evenodd" d="M0.00844089 176.438C0.435601 149.753 40.2052 150.563 41.0993 176.481C41.3317 202.216 -0.682963 202.714 0.00844089 176.438Z" fill="#F1DBE7"/>
<path fill-rule="evenodd" clip-rule="evenodd" d="M123.316 182.043C117.431 190.631 106.696 205.588 103.732 187.951C97.9882 171.772 120.254 150.761 132.559 162.285C130.183 169.503 128.006 174.912 123.316 182.043Z" fill="#F1DBE7"/>
<path d="M51.0326 156.507C56.8762 155.122 60.3145 147.984 58.1973 141.633C56.5174 136.599 52.6194 134.024 48.573 135.279C43.2936 136.915 40.005 144.664 42.0017 150.763C43.4792 155.279 46.9344 157.476 51.0326 156.507Z" fill="#0058FF"/>
<path d="M119.763 145.099C120.032 139.845 116.226 134.999 111.805 134.964C107.714 134.931 104.787 138.786 104.554 144.509C104.322 150.202 106.88 154.107 111.114 154.525C115.569 154.962 119.479 150.702 119.763 145.099Z" fill="#0058FF"/>
<path fill-rule="evenodd" clip-rule="evenodd" d="M81.9002 122.148C82.9672 121.813 84.1034 122.407 84.4378 123.474C86.0798 128.714 88.1078 136.305 89.5322 142.802C90.2433 146.045 90.8143 149.062 91.1076 151.395C91.2532 152.554 91.3389 153.608 91.3253 154.464C91.3185 154.889 91.2867 155.331 91.2003 155.743C91.1265 156.094 90.9556 156.723 90.4591 157.24C89.9222 157.799 89.2358 158.091 88.6978 158.261C88.1235 158.442 87.4852 158.555 86.8452 158.628C85.5624 158.774 84.0335 158.783 82.4908 158.722C79.3918 158.599 75.9662 158.183 73.7518 157.838C72.647 157.665 71.8911 156.63 72.0635 155.525C72.236 154.42 73.2715 153.664 74.3763 153.836C76.4909 154.166 79.7537 154.561 82.6504 154.675C84.1056 154.733 85.4013 154.716 86.3886 154.604C86.7585 154.562 87.052 154.51 87.2751 154.456C87.2756 154.438 87.2759 154.419 87.2762 154.399C87.2854 153.823 87.2261 152.985 87.0896 151.9C86.8188 149.746 86.2778 146.867 85.5766 143.669C84.1763 137.283 82.1783 129.806 80.5735 124.685C80.2391 123.618 80.8331 122.482 81.9002 122.148Z" fill="#0F172A"/>
<path fill-rule="evenodd" clip-rule="evenodd" d="M53.4026 170.251C54.3519 169.66 55.6006 169.951 56.1915 170.9C60.1473 177.255 66.1555 181.703 72.2735 182.762C78.2315 183.793 84.6329 181.673 89.8135 174.183C90.4497 173.263 91.7109 173.034 92.6306 173.67C93.5503 174.306 93.7802 175.567 93.1441 176.487C87.153 185.149 79.2406 188.077 71.5832 186.752C64.0857 185.455 57.1767 180.145 52.7536 173.04C52.1627 172.091 52.4532 170.842 53.4026 170.251Z" fill="#0F172A"/>
</svg>
