<svg id="eflky6279dO1" xmlns="http://www.w3.org/2000/svg" xmlns:xlink="http://www.w3.org/1999/xlink" viewBox="0 0 42 54" shape-rendering="geometricPrecision" text-rendering="geometricPrecision" style="background-color:transparent"><g transform="translate(1-6)"><path d="M16.8826,23.556c.5108-.3877,1.0297-.7662,1.5307-1.1675c1.1536-.9226,2.293-1.8644,3.4474-2.7849.3901-.3103.7896-.6143,1.2172-.8676c1.8346-1.0868,3.5933-.6433,4.4535,1.305.6242,1.4128.9572,2.957,1.4243,4.4408.2437.7735.4981,1.5432.7432,2.3138.8132,2.5562,4.1012,3.3676,6.1422,1.9877.9263-.6269,1.6282-1.4043,2.0605-2.4376.2157-.5178.4328-1.0384.7087-1.5242.2404-.422.6245-.7083,1.1462-.5162.5101.1866.616.6374.5771,1.1257-.0163.2053-.0617.4113-.1165.611-.7695,2.7719-4.0137,5.5397-6.8715,5.8654-3.2227.3668-5.5203-.9608-6.6962-3.9778-.5033-1.2933-.83-2.6573-1.2522-3.9821-.1796-.5679-.3995-1.1262-.6301-1.7682-.3551.2516-.6963.4471-.9818.7028-1.1276,1.0154-2.2291,2.0628-3.3612,3.0725-.6974.6202-1.4261,1.2078-2.1615,1.7832-.2414.1888-.5429.3117-.8325.4206-2.1803.8291-4.1399-.3231-4.3078-2.6416-.1301-1.7994-.1047-3.6133-.0749-5.4215.0455-2.6797.1694-5.3584.2294-8.0385.0134-.6202-.0812-1.2429-.1381-1.8622-.0499-.53908-.319-.73921-.8443-.5141-1.9763.8483-3.31058,2.332-4.16731,4.2644-.06343.142.06302.4128.1719.5804.23292.364.56314.6735.75802,1.0535.27308.5367.06708.9731-.5188,1.0838-1.1739.2221-2.31548.1139-3.18625-.7993-.82401-.8643-.87321-1.9436-.39732-2.9707C6.37755,9.82529,8.75885,7.82701,12.0364,7.00275c1.668-.41896,3.1177.3642,3.7038,1.98284.3849,1.05851.6379,2.21051.6932,3.33381.1185,2.4044.0583,4.8194.0928,7.2272.0184,1.319.0803,2.637.1234,3.9569.08.0126.155.0319.233.0525Z" fill="#0058ff"/><path d="M0.002532,52.9315C0.13068,44.926,12.0616,45.1689,12.3298,52.9443c.0697,7.7205-12.534689,7.87-12.327268-.0128Z" clip-rule="evenodd" fill="#f1dbe7" fill-rule="evenodd"/><path d="M36.9947,54.613c-1.7655,2.5762-4.986,7.0636-5.8752,1.7725-1.723-4.8538,4.9565-11.1572,8.6482-7.7-.7128,2.1654-1.3661,3.7882-2.773,5.9275Z" clip-rule="evenodd" fill="#f1dbe7" fill-rule="evenodd"/><path d="M24.57,36.6443c.3202-.1003.661.0779.7613.398.4926,1.5719,1.101,3.8493,1.5283,5.7983.2134.973.3847,1.878.4727,2.578.0437.3476.0694.6639.0653.9206-.0021.1274-.0116.2601-.0375.3836-.0221.1055-.0734.2942-.2224.4492-.161.1676-.367.2553-.5284.3063-.1723.0544-.3637.0883-.5558.1101-.3848.0437-.8435.0464-1.3063.0281-.9297-.0367-1.9573-.1615-2.6217-.2652-.3314-.0518-.5582-.3624-.5065-.6939s.3624-.5582.6939-.5065c.6344.0991,1.6132.2174,2.4822.2517.4366.0172.8253.0123,1.1215-.0213.1109-.0126.199-.0282.2659-.0446.0002-.0054.0003-.011.0004-.0168.0027-.173-.0151-.4242-.056-.7498-.0813-.6463-.2436-1.51-.4539-2.4694-.4201-1.9159-1.0195-4.1588-1.501-5.6951-.1003-.3201.0779-.661.398-.7613Z" clip-rule="evenodd" fill="#0f172a" fill-rule="evenodd"/><path d="M16.0208,51.0753c.2848-.1773.6594-.0901.8366.1947c1.1868,1.9064,2.9892,3.241,4.8246,3.5585c1.7875.3093,3.7079-.3265,5.2621-2.5736.1908-.2759.5692-.3448.8451-.154s.3448.5692.154.8451c-1.7973,2.5986-4.171,3.477-6.4683,3.0796-2.2492-.3891-4.3219-1.982-5.6488-4.1136-.1773-.2848-.0901-.6594.1947-.8367Z" clip-rule="evenodd" fill="#0f172a" fill-rule="evenodd"/></g><g transform="translate(1.000002-6)"><path d="M15.3098,46.952c1.753-.4153,2.7846-2.5567,2.1494-4.462-.504-1.5103-1.6734-2.2827-2.8873-1.9064-1.5838.491-2.5704,2.8156-1.9714,4.6454.4432,1.3547,1.4798,2.0139,2.7093,1.723Z" fill="#0058ff"/><path d="M35.929,43.5296c.0806-1.576-1.0612-3.0298-2.3875-3.0403-1.2272-.0099-2.1055,1.1464-2.1755,2.8634-.0694,1.708.698,2.8795,1.9681,3.0048c1.3364.131,2.5095-1.1469,2.5949-2.8279Z" fill="#0058ff"/></g><g transform="translate(1-6)"><path style="mix-blend-mode:multiply" d="M12.4644,43.5c-.0811.5787-.0448,1.1764.1361,1.729.4432,1.3546,1.4798,2.0139,2.7093,1.723c1.3802-.327,2.3132-1.7241,2.3376-3.2334" fill="none" stroke="#fff" stroke-width="1.2" stroke-linecap="round"/><path style="mix-blend-mode:multiply" d="M35.929,43.5296c-.0854,1.6809-1.2585,2.9589-2.5949,2.8278-1.2701-.1252-2.0375-1.2967-1.9681-3.0048" fill="none" stroke="#fff" stroke-width="1.2" stroke-linecap="round"/></g></svg>