<?xml version="1.0" encoding="utf-8"?>
<!-- Generator: Adobe Illustrator 25.4.1, SVG Export Plug-In . SVG Version: 6.00 Build 0)  -->
<svg version="1.1" id="Layer_1" xmlns="http://www.w3.org/2000/svg" xmlns:xlink="http://www.w3.org/1999/xlink" x="0px" y="0px"
	 viewBox="0 0 77.6 100" style="enable-background:new 0 0 77.6 100;" xml:space="preserve">
<style type="text/css">
	.st0{fill:#0058FF;}
	.st1{fill-rule:evenodd;clip-rule:evenodd;fill:#F1DBE7;}
	.st2{fill-rule:evenodd;clip-rule:evenodd;fill:#0F172A;}
</style>
<path class="st0" d="M32.5,32.1c1-0.7,2-1.5,2.9-2.2c2.2-1.8,4.4-3.6,6.6-5.4c0.8-0.6,1.5-1.2,2.3-1.7c3.5-2.1,6.9-1.2,8.6,2.5
	c1.2,2.7,1.8,5.7,2.7,8.5c0.5,1.5,1,3,1.4,4.5c1.6,4.9,7.9,6.5,11.8,3.8c1.8-1.2,3.1-2.7,4-4.7c0.4-1,0.8-2,1.4-2.9
	c0.5-0.8,1.2-1.4,2.2-1c1,0.4,1.2,1.2,1.1,2.2c0,0.4-0.1,0.8-0.2,1.2c-1.5,5.3-7.7,10.7-13.2,11.3c-6.2,0.7-10.6-1.8-12.9-7.7
	c-1-2.5-1.6-5.1-2.4-7.7c-0.3-1.1-0.8-2.2-1.2-3.4c-0.7,0.5-1.3,0.9-1.9,1.4c-2.2,2-4.3,4-6.5,5.9c-1.3,1.2-2.7,2.3-4.2,3.4
	c-0.5,0.4-1,0.6-1.6,0.8c-4.2,1.6-8-0.6-8.3-5.1c-0.3-3.5-0.2-7-0.1-10.4c0.1-5.2,0.3-10.3,0.4-15.5c0-1.2-0.2-2.4-0.3-3.6
	c-0.1-1-0.6-1.4-1.6-1c-3.8,1.6-6.4,4.5-8,8.2c-0.1,0.3,0.1,0.8,0.3,1.1c0.4,0.7,1.1,1.3,1.5,2c0.5,1,0.1,1.9-1,2.1
	c-2.3,0.4-4.5,0.2-6.1-1.5c-1.6-1.7-1.7-3.7-0.8-5.7c2.7-5.9,7.3-9.7,13.6-11.3c3.2-0.8,6,0.7,7.1,3.8c0.7,2,1.2,4.3,1.3,6.4
	c0.2,4.6,0.1,9.3,0.2,13.9c0,2.5,0.2,5.1,0.2,7.6C32.2,32,32.3,32,32.5,32.1z"/>
<path class="st1" d="M0,88.6c0.2-15.4,23.2-14.9,23.7,0C23.9,103.5-0.4,103.8,0,88.6z"/>
<path class="st1" d="M71.2,91.8c-3.4,5-9.6,13.6-11.3,3.4c-3.3-9.3,9.5-21.5,16.6-14.8C75.2,84.6,73.9,87.7,71.2,91.8z"/>
<path class="st0" d="M29.5,77.1c3.4-0.8,5.4-4.9,4.1-8.6c-1-2.9-3.2-4.4-5.6-3.7c-3,0.9-4.9,5.4-3.8,8.9
	C25.1,76.4,27.1,77.7,29.5,77.1z"/>
<path class="st0" d="M69.1,70.5c0.2-3-2-5.8-4.6-5.9c-2.4,0-4.1,2.2-4.2,5.5c-0.1,3.3,1.3,5.5,3.8,5.8C66.7,76.2,69,73.7,69.1,70.5z
	"/>
<path class="st2" d="M47.3,57.3c0.6-0.2,1.3,0.1,1.5,0.8c0.9,3,2.1,7.4,2.9,11.2c0.4,1.9,0.7,3.6,0.9,5c0.1,0.7,0.1,1.3,0.1,1.8
	c0,0.2,0,0.5-0.1,0.7c0,0.2-0.1,0.6-0.4,0.9c-0.3,0.3-0.7,0.5-1,0.6c-0.3,0.1-0.7,0.2-1.1,0.2c-0.7,0.1-1.6,0.1-2.5,0.1
	c-1.8-0.1-3.8-0.3-5-0.5c-0.6-0.1-1.1-0.7-1-1.3c0.1-0.6,0.7-1.1,1.3-1c1.2,0.2,3.1,0.4,4.8,0.5c0.8,0,1.6,0,2.2,0
	c0.2,0,0.4-0.1,0.5-0.1c0,0,0,0,0,0c0-0.3,0-0.8-0.1-1.4c-0.2-1.2-0.5-2.9-0.9-4.8c-0.8-3.7-2-8-2.9-11
	C46.3,58.1,46.7,57.5,47.3,57.3z"/>
<path class="st2" d="M30.8,85c0.5-0.3,1.3-0.2,1.6,0.4c2.3,3.7,5.8,6.2,9.3,6.8c3.4,0.6,7.1-0.6,10.1-5c0.4-0.5,1.1-0.7,1.6-0.3
	c0.5,0.4,0.7,1.1,0.3,1.6c-3.5,5-8,6.7-12.4,5.9c-4.3-0.7-8.3-3.8-10.9-7.9C30.1,86.1,30.3,85.4,30.8,85z"/>
</svg>
