<svg width="70" height="100" viewBox="0 0 70 100" fill="none" xmlns="http://www.w3.org/2000/svg">
<path d="M28.1377 39.26C28.989 38.6138 29.8538 37.983 30.6888 37.3142C32.6115 35.7766 34.5106 34.2069 36.4345 32.6728C37.0846 32.1556 37.7506 31.6489 38.4632 31.2268C41.5209 29.4153 44.4519 30.1546 45.8857 33.4017C46.926 35.7564 47.481 38.33 48.2595 40.803C48.6656 42.0922 49.0897 43.375 49.4982 44.6593C50.8536 48.9197 56.3335 50.272 59.7352 47.9722C61.2791 46.9273 62.4488 45.6316 63.1693 43.9095C63.5288 43.0466 63.8907 42.1788 64.3506 41.3691C64.7512 40.6658 65.3913 40.1887 66.2609 40.5088C67.111 40.8198 67.2875 41.5712 67.2227 42.385C67.1954 42.7272 67.1199 43.0705 67.0285 43.4033C65.746 48.0232 60.339 52.6362 55.576 53.179C50.2048 53.7903 46.3755 51.5777 44.4157 46.5493C43.5768 44.3939 43.0323 42.1206 42.3287 39.9126C42.0294 38.966 41.6628 38.0356 41.2785 36.9655C40.6866 37.3848 40.118 37.7106 39.6422 38.1368C37.7628 39.8292 35.927 41.5749 34.0402 43.2578C32.8778 44.2914 31.6634 45.2707 30.4376 46.2297C30.0354 46.5444 29.5328 46.7492 29.0502 46.9306C25.4163 48.3125 22.1504 46.3922 21.8704 42.528C21.6536 39.529 21.6959 36.5058 21.7457 33.4922C21.8216 29.0259 22.028 24.5615 22.128 20.0947C22.1503 19.061 21.9927 18.0231 21.8979 16.991C21.8147 16.0925 21.3662 15.759 20.4907 16.1342C17.1969 17.548 14.973 20.0209 13.5452 23.2416C13.4394 23.4782 13.6502 23.9295 13.8317 24.2089C14.2199 24.8154 14.7702 25.3313 15.095 25.9646C15.5502 26.8592 15.2068 27.5865 14.2304 27.771C12.2738 28.1411 10.3712 27.9609 8.91993 26.4389C7.54659 24.9983 7.46458 23.1995 8.25773 21.4877C10.6293 16.3755 14.5981 13.045 20.0607 11.6713C22.8406 10.973 25.2568 12.2783 26.2336 14.976C26.8752 16.7401 27.2969 18.6602 27.389 20.5324C27.5865 24.5397 27.4861 28.5648 27.5436 32.5777C27.5743 34.776 27.6775 36.9727 27.7493 39.1725C27.8826 39.1935 28.0077 39.2256 28.1377 39.26Z" fill="#0058FF"/>
<path fill-rule="evenodd" clip-rule="evenodd" d="M0.00422044 88.2191C0.217801 74.8766 20.1026 75.2815 20.5496 88.2405C20.6659 101.108 -0.341481 101.357 0.00422044 88.2191Z" fill="#F1DBE7"/>
<path fill-rule="evenodd" clip-rule="evenodd" d="M61.6579 91.0217C58.7153 95.3154 53.3479 102.794 51.8659 93.9757C48.9941 85.8861 60.1268 75.3805 66.2795 81.1425C65.0916 84.7515 64.0028 87.4561 61.6579 91.0217Z" fill="#F1DBE7"/>
<path d="M25.5163 78.2533C28.4381 77.5612 30.1573 73.9921 29.0987 70.8166C28.2587 68.2994 26.3097 67.0121 24.2865 67.6393C21.6468 68.4576 20.0025 72.332 21.0009 75.3817C21.7396 77.6395 23.4672 78.7382 25.5163 78.2533Z" fill="#0058FF"/>
<path d="M59.8817 72.5494C60.0161 69.9227 58.1131 67.4996 55.9025 67.4822C53.8572 67.4657 52.3934 69.3928 52.2768 72.2544C52.161 75.1012 53.44 77.0536 55.5569 77.2624C57.7843 77.4808 59.7394 75.3509 59.8817 72.5494Z" fill="#0058FF"/>
<path fill-rule="evenodd" clip-rule="evenodd" d="M40.9501 61.0739C41.4836 60.9067 42.0517 61.2036 42.2189 61.7372C43.0399 64.357 44.0539 68.1527 44.7661 71.4009C45.1217 73.0227 45.4071 74.5309 45.5538 75.6976C45.6266 76.2769 45.6695 76.8041 45.6626 77.232C45.6593 77.4444 45.6434 77.6655 45.6002 77.8714C45.5633 78.0472 45.4778 78.3616 45.2295 78.62C44.9611 78.8993 44.6179 79.0454 44.3489 79.1304C44.0618 79.2212 43.7426 79.2777 43.4226 79.314C42.7812 79.3868 42.0167 79.3913 41.2454 79.3608C39.6959 79.2997 37.9831 79.0916 36.8759 78.9188C36.3235 78.8325 35.9455 78.3148 36.0318 77.7624C36.118 77.2099 36.6357 76.832 37.1882 76.9182C38.2455 77.0832 39.8768 77.2805 41.3252 77.3376C42.0528 77.3663 42.7007 77.3581 43.1943 77.3021C43.3793 77.2811 43.526 77.2552 43.6376 77.2278C43.6378 77.2188 43.638 77.2094 43.6381 77.1997C43.6427 76.9115 43.613 76.4927 43.5448 75.9501C43.4094 74.8729 43.1389 73.4336 42.7883 71.8346C42.0881 68.6413 41.0891 64.9031 40.2868 62.3427C40.1196 61.8091 40.4165 61.2411 40.9501 61.0739Z" fill="#0F172A"/>
<path fill-rule="evenodd" clip-rule="evenodd" d="M26.7013 85.1255C27.1759 84.83 27.8003 84.9753 28.0958 85.45C30.0736 88.6273 33.0777 90.8517 36.1368 91.3809C39.1158 91.8963 42.3165 90.8366 44.9068 87.0916C45.2248 86.6317 45.8554 86.5168 46.3153 86.8348C46.7751 87.1529 46.8901 87.7835 46.572 88.2434C43.5765 92.5743 39.6203 94.0384 35.7916 93.376C32.0428 92.7275 28.5883 90.0726 26.3768 86.52C26.0813 86.0453 26.2266 85.421 26.7013 85.1255Z" fill="#0F172A"/>
</svg>
