<svg width="1036" height="1011" viewBox="0 0 1036 1011" fill="none" xmlns="http://www.w3.org/2000/svg">
<g style="mix-blend-mode:multiply" opacity="0.4">
<path fill-rule="evenodd" clip-rule="evenodd" d="M220.254 700.965C319.934 823.535 477.741 842.035 609.628 803.622C755.943 761.008 907.158 672.275 886.919 506.798C866.619 340.823 693.195 238.141 534.425 188.749C397.769 146.236 261.023 179.184 192.569 290.79C119.896 409.274 118.903 576.34 220.254 700.965Z" fill="#F2B2D5"/>
</g>
<path d="M619.504 986.282L723.933 693.968L315.449 548.038L211.02 840.352L587.211 1002.6L619.504 986.282Z" fill="white" stroke="#0F172A" stroke-width="5"/>
<path d="M613.844 981.332L664.063 840.76L714.621 699.238L318.489 557.72L287.685 565.975L186.383 849.535L589.515 993.553L613.844 981.332Z" fill="white" stroke="#0F172A" stroke-width="5"/>
<path d="M585.976 1002.16L690.405 709.846L281.921 563.916L177.492 856.23L585.976 1002.16Z" fill="white" stroke="#0F172A" stroke-width="5"/>
<rect width="132.033" height="82.1925" transform="matrix(0.336424 -0.941711 -0.941711 -0.336424 531.992 888.166)" fill="white" stroke="#0F172A" stroke-width="5"/>
<path d="M506 544.718L509.231 466L546.715 470.686C546.93 492.239 557.232 539.658 556.715 556.901C556.198 574.144 519.356 555.963 506 544.718Z" fill="white" stroke="#0F172A" stroke-width="5" stroke-linecap="round" stroke-linejoin="round"/>
<path d="M517.983 479.172C522.929 481.825 540.71 480.735 546.085 476.838" stroke="#0F172A" stroke-width="5" stroke-linecap="round" stroke-linejoin="round"/>
<path fill-rule="evenodd" clip-rule="evenodd" d="M566.111 339.819C535.625 318.696 498.834 324.838 471.607 342.118C441.401 361.289 413.104 391.178 428.482 427.167C443.906 463.264 489.72 475.083 528.747 475.844C562.338 476.499 591.018 460.134 599.159 430.495C607.803 399.03 597.108 361.295 566.111 339.819Z" fill="white" stroke="#0F172A" stroke-width="5"/>
<path fill-rule="evenodd" clip-rule="evenodd" d="M496.007 444.153C496.371 420.925 530.287 421.63 531.049 444.19C531.247 466.591 495.418 467.024 496.007 444.153Z" fill="#F1DBE7"/>
<path d="M631.032 309.8L630.556 309.441C622.812 303.431 613.879 299.213 604.376 297.079C594.871 294.945 585.025 294.945 575.522 297.082C574.36 297.335 573.22 297.652 572.082 297.969C569.63 298.668 567.22 299.515 564.867 300.504C561.261 302.031 557.793 303.877 554.502 306.018C554.377 306.115 554.276 306.243 554.215 306.392C554.152 306.541 554.131 306.703 554.15 306.863C551.801 305.784 549.393 304.846 546.937 304.053C546.149 303.779 545.362 303.567 544.595 303.335C542.066 302.617 539.516 302.046 536.946 301.582C533.516 300.992 530.056 300.604 526.582 300.42C516.684 300.019 506.771 300.521 496.961 301.92L493.064 302.448C491.53 302.659 489.996 302.849 488.483 303.082C490.011 302.206 491.408 301.111 492.628 299.828C492.969 299.476 493.287 299.102 493.582 298.708C493.831 298.392 494.079 298.096 494.287 297.779C495.065 296.65 495.68 295.412 496.111 294.103C496.368 293.29 496.556 292.456 496.67 291.61C496.884 289.052 496.515 286.478 495.592 284.089C495.511 283.786 495.407 283.489 495.282 283.202C495.095 282.695 494.909 282.188 494.681 281.681C494.453 281.174 494.287 280.667 494.059 280.181C493.883 279.697 493.607 279.258 493.249 278.893C492.892 278.528 492.461 278.247 491.986 278.068C491.862 278.048 491.736 278.048 491.613 278.068C490.701 278.068 490.556 278.829 490.763 279.526C490.751 279.631 490.751 279.738 490.763 279.843C491.095 280.582 491.426 281.343 491.696 282.125C491.965 282.906 492.089 283.139 492.255 283.667C492.374 283.976 492.471 284.294 492.545 284.617C493.021 286.269 493.148 288.004 492.919 289.709C492.928 289.786 492.928 289.864 492.919 289.941C492.827 290.474 492.688 290.998 492.504 291.505C491.727 293.641 490.446 295.549 488.773 297.061C487.522 298.207 486.128 299.18 484.627 299.955L483.632 300.42C483.805 300.346 483.945 300.211 484.026 300.039C484.876 298.772 483.777 295.033 482.368 291.314C482.35 291.224 482.35 291.13 482.368 291.04L481.414 288.758L481.29 288.483C481.124 288.082 480.979 287.723 480.813 287.364C480.647 287.005 480.316 286.223 480.088 285.716C480.017 285.534 479.934 285.358 479.839 285.188C479.839 285.188 479.839 285.061 479.715 284.913C479.321 284.005 478.989 283.35 478.844 283.012C477.168 279.078 475.293 275.235 473.227 271.498C471.973 269.173 470.588 266.923 469.081 264.759C467.035 261.77 464.702 258.996 462.116 256.478C461.349 255.717 460.562 254.999 459.774 254.365C457.915 252.691 455.971 251.119 453.949 249.654C448.046 245.259 441.479 241.877 434.506 239.64C433.076 239.218 431.666 238.859 430.236 238.584H430.07C419.848 236.989 409.394 238.68 400.159 243.422C389.929 248.027 381.138 255.408 374.746 264.759C368.971 273.53 364.761 283.27 362.308 293.533C361.935 295.033 361.604 296.554 361.314 298.075C359.39 308.085 359.581 318.398 361.873 328.327C362.122 329.489 362.454 330.63 362.785 331.75C363.013 332.531 363.241 333.313 363.511 334.095C366.573 343.558 372.096 351.999 379.492 358.516C381.069 359.894 382.753 361.137 384.529 362.235C385.669 363.009 386.853 363.715 388.074 364.347C388.924 364.812 389.815 365.234 390.706 365.615L391.245 365.826L391.639 365.995C392.095 366.206 392.551 366.375 393.028 366.544C394.168 366.967 395.308 367.347 396.49 367.685C397.671 368.023 398.832 368.298 400.014 368.551L400.719 368.657C402.465 368.996 404.23 369.228 406.004 369.354H407.766C407.517 370.129 407.289 370.91 407.082 371.699C407.024 371.843 406.976 371.992 406.937 372.143C406.688 373.051 406.439 373.981 406.211 374.91C406.211 375.354 406.004 375.797 405.921 376.262C405.507 378.037 405.154 379.854 404.885 381.692C404.657 383.17 404.449 384.649 404.304 386.149C404.304 386.994 404.159 387.839 404.097 388.684C404.088 388.754 404.088 388.825 404.097 388.895C403.766 393.297 403.766 397.719 404.097 402.12C404.097 403.177 404.284 404.233 404.408 405.374C404.532 406.515 404.719 407.677 404.885 408.838C405.175 410.782 405.548 412.726 405.963 414.648C406.377 416.571 406.833 418.366 407.351 420.183C408.948 425.784 411.116 431.202 413.819 436.345C414.068 436.894 414.378 437.442 414.669 437.993L414.959 438.52C415.643 439.725 416.327 440.887 417.032 442.07C420.946 448.343 425.76 453.982 431.313 458.802C434.853 461.883 438.727 464.541 442.859 466.723C444.434 467.582 446.053 468.349 447.71 469.027C449.918 469.943 452.182 470.712 454.488 471.329C459.594 472.674 469.961 474.628 470.944 472.978C471.927 471.329 470.944 464.132 470.944 464.132C470.944 460.963 466.842 449.295 463.774 448.239C462.714 447.982 461.615 447.946 460.541 448.133C454.094 448.725 447.544 448.534 442.237 444.351C437.918 440.944 436.117 436.192 434.575 430.853C429.66 403.188 464.173 391.693 477.825 410.069C480.307 414.141 482.719 418.435 483.197 423.205C483.197 423.205 483.197 423.331 483.197 423.415C483.197 423.5 483.487 424.007 483.612 424.302C483.191 425.108 482.824 425.94 482.513 426.795C482.509 426.838 482.509 426.879 482.513 426.923C482.368 427.302 482.243 427.683 482.119 428.063C481.81 428.977 481.554 429.907 481.352 430.853C481.342 431.049 481.342 431.246 481.352 431.442C480.87 433.54 480.816 435.716 481.194 437.834C481.572 439.953 482.374 441.97 483.549 443.759C487.695 449.505 494.784 450.372 501.231 450.583C503.034 450.583 501.231 447.457 499.904 447.416C494.017 447.225 485.809 446.843 484.151 439.682C483.653 437.45 483.653 435.132 484.151 432.901C484.175 432.742 484.216 432.586 484.275 432.437C484.399 431.845 484.586 431.254 484.772 430.662L485.166 429.563L485.436 428.865C486.039 427.469 486.731 426.115 487.509 424.809L488.068 423.879C488.503 423.183 488.959 422.507 489.416 421.768C489.906 421.118 490.51 420.566 491.198 420.141C493.105 418.831 495.738 417.69 497.126 416.655C500.194 414.542 503.138 412.05 505.978 409.578C507.263 408.5 508.527 407.465 509.75 406.219C510.352 405.712 510.911 405.163 511.471 404.592C512.549 403.641 513.544 402.627 514.601 401.592C515.72 400.494 516.86 399.332 517.959 398.191C519.057 397.05 520.177 395.867 521.275 394.684C521.773 394.156 522.27 393.628 522.747 393.078C522.904 392.92 523.049 392.751 523.182 392.571L524.426 391.219C524.654 390.924 524.923 390.67 525.172 390.374L526.499 388.832C526.748 388.557 526.996 388.283 527.203 388.008C528.468 386.572 529.67 385.114 530.872 383.614L531.121 383.297C532.033 382.199 532.904 381.185 533.775 379.98C535.101 378.29 536.386 376.621 537.609 374.952C537.817 374.678 538.024 374.424 538.19 374.171C540.221 371.354 542.135 368.636 543.932 366.016L544.761 364.749L544.968 364.41C552.886 352.326 558.462 341.045 561.033 332.172C560.842 336.647 559.903 341.055 558.255 345.207C557.115 348.439 555.829 351.545 554.524 354.798V355.03L554.15 355.96C553.177 358.326 552.078 360.713 551.227 363.101C551.178 363.237 551.178 363.387 551.227 363.523C551.207 363.577 551.207 363.638 551.227 363.692C551.241 363.831 551.274 363.967 551.331 364.094C551.829 365.34 555.57 367.629 556.005 366.509C559.799 357.002 563.955 346.348 568.018 336.123C570.09 341.932 573.491 351.312 574.236 353.024C581.534 370.22 585.326 388.642 592.643 405.839C593.265 407.3 593.992 408.713 594.82 410.064C597.1 410.719 600.686 409.155 603.546 407.55L605.434 406.409C605.951 406.071 606.407 405.775 606.78 405.501C608.064 404.614 609.271 403.618 610.388 402.522C619.362 393.712 624.136 381.029 625.435 367.136C628.346 338.565 619.217 317.511 596.27 306.842L594.363 305.955C591.711 304.708 589.555 303.715 587.607 303.018C582.301 301.096 578.506 301.201 569.988 303.842C573.906 302.387 577.954 301.319 582.073 300.652C582.859 300.525 583.647 300.399 584.436 300.335C600.662 298.27 617.037 302.776 630.037 312.884C630.364 313.186 630.767 313.391 631.199 313.476C632.505 313.159 632.483 310.962 631.032 309.8Z" fill="white" stroke="#0F172A" stroke-width="5" stroke-linejoin="round"/>
<path d="M535.514 427.643C539.47 426.646 541.798 421.504 540.364 416.929C539.227 413.303 536.588 411.449 533.848 412.352C530.274 413.531 528.048 419.113 529.4 423.506C530.4 426.758 532.739 428.341 535.514 427.643Z" fill="#0F172A"/>
<path d="M585.131 420.097C585.326 416.244 582.564 412.69 579.356 412.665C576.387 412.641 574.263 415.467 574.094 419.664C573.926 423.839 575.782 426.703 578.854 427.009C582.087 427.329 584.924 424.205 585.131 420.097Z" fill="#0F172A"/>
<path fill-rule="evenodd" clip-rule="evenodd" d="M587.41 443.693C583.161 449.893 577.346 461.736 574.203 448.073C570.056 436.391 586.132 421.221 595.017 429.541C593.301 434.753 590.796 438.544 587.41 443.693Z" fill="#F1DBE7"/>
<path d="M558.5 404C561 411.667 564.7 426.3 563.5 427.5C562.3 428.7 555.333 428 552 427.5" stroke="#0F172A" stroke-width="5" stroke-linecap="round" stroke-linejoin="round"/>
<path d="M538 439.5C544 449.5 556.5 454 564.5 442" stroke="#0F172A" stroke-width="5" stroke-linecap="round" stroke-linejoin="round"/>
<path d="M602 616.5L600.5 648L447.5 593L456 581L463.5 566.5L476.5 532.5V507.5L504 502L520.5 505L540 504H556L566 505L586.5 552L600.5 584.5L602 616.5Z" fill="white"/>
<path d="M368 670C368.8 678.8 461.667 742 506 770C509.833 766.5 519.1 758.5 525.5 754.5C533.5 749.5 540.5 744.5 545.5 743.5C550.5 742.5 558 745 550 752C543.6 757.6 536.667 764.333 534 767C540 765.333 554 762 562 762C572 762 580 762 583.5 764.5C587 767 588.5 771.5 583.5 773.5C579.5 775.1 552.833 780.167 540 782.5C550.333 783.333 572.5 785.1 578.5 785.5C586 786 597.5 788.5 597 793C596.5 797.5 595 800.5 572.5 798.5C554.5 796.9 543.333 795.833 540 795.5C551.167 797 575 800.4 581 802C588.5 804 598.5 813.5 578.5 813.5C576.675 813.5 574.815 813.47 572.941 813.414C578.38 814.031 582.424 814.597 583.5 815C587.5 816.5 595 822.5 578.5 824C562 825.5 526 824.5 496.5 815C472.9 807.4 427 787.5 407 778.5C387 770 343.7 749.1 330.5 733.5C314 714 300 700.5 297.5 675C295 649.5 313 632.5 323 622C333 611.5 360.5 582 379 566C397.5 550 405.5 542 427.5 528.5C446.678 516.732 464.336 510.283 476.5 507.166C478.29 506.707 479.961 506.321 481.5 506C493.5 503.5 507.5 504.5 507.5 504.5C507.5 545.77 529.115 554.885 544.5 547.5C569.5 535.5 551 503.5 551 503.5C551 503.5 557.944 503.167 565.204 504.5C568.833 505.167 572.333 506.167 575 507.5C583 511.5 600 518.5 612 536C624 553.5 638.5 575 646 609.5C653.5 644 652 668 652 668L599.5 649.5C599.5 649.5 604 590.5 597 575C591.4 562.6 573.469 522.833 565.204 504.5C557.944 503.167 551 503.5 551 503.5C551 503.5 569.5 535.5 544.5 547.5C529.115 554.885 507.5 545.77 507.5 504.5C507.5 504.5 493.5 503.5 481.5 506C479.961 506.321 478.29 506.707 476.5 507.166C485 593 367 659 368 670Z" fill="white"/>
<path d="M476.5 507.166C485 593 367 659 368 670C368.8 678.8 461.667 742 506 770C509.833 766.5 519.1 758.5 525.5 754.5C533.5 749.5 540.5 744.5 545.5 743.5C550.5 742.5 558 745 550 752C543.6 757.6 536.667 764.333 534 767C540 765.333 554 762 562 762C572 762 580 762 583.5 764.5C587 767 588.5 771.5 583.5 773.5C579.5 775.1 552.833 780.167 540 782.5C550.333 783.333 572.5 785.1 578.5 785.5C586 786 597.5 788.5 597 793C596.5 797.5 595 800.5 572.5 798.5C554.5 796.9 543.333 795.833 540 795.5C551.167 797 575 800.4 581 802C588.5 804 598.5 813.5 578.5 813.5C562.5 813.5 543.833 811.167 536.5 810C550.833 811.167 580.3 813.8 583.5 815C587.5 816.5 595 822.5 578.5 824C562 825.5 526 824.5 496.5 815C472.9 807.4 427 787.5 407 778.5C387 770 343.7 749.1 330.5 733.5C314 714 300 700.5 297.5 675C295 649.5 313 632.5 323 622C333 611.5 360.5 582 379 566C397.5 550 405.5 542 427.5 528.5C449.5 515 469.5 508.5 481.5 506C493.5 503.5 507.5 504.5 507.5 504.5C507.5 545.77 529.115 554.885 544.5 547.5C569.5 535.5 551 503.5 551 503.5C551 503.5 557.944 503.167 565.204 504.5M565.204 504.5C568.833 505.167 572.333 506.167 575 507.5C583 511.5 600 518.5 612 536C624 553.5 638.5 575 646 609.5C653.5 644 652 668 652 668L599.5 649.5C599.5 649.5 604 590.5 597 575C591.4 562.6 573.469 522.833 565.204 504.5Z" stroke="#0F172A" stroke-width="5" stroke-linecap="round" stroke-linejoin="round"/>
<path d="M386.5 656.5C405.5 642.5 429.5 621.5 449 596.5" stroke="#0F172A" stroke-width="5" stroke-linecap="round" stroke-linejoin="round"/>
<path d="M615.5 541L586.5 552" stroke="#0F172A" stroke-width="5" stroke-linecap="round" stroke-linejoin="round"/>
<path d="M456 578.5L417 536.5" stroke="#0F172A" stroke-width="5" stroke-linecap="round" stroke-linejoin="round"/>
<path d="M425.5 615.5L382.5 563.5" stroke="#0F172A" stroke-width="5" stroke-linecap="round" stroke-linejoin="round"/>
<path d="M398 640L354 591" stroke="#0F172A" stroke-width="5" stroke-linecap="round" stroke-linejoin="round"/>
<path d="M372.5 663.5L324 622" stroke="#0F172A" stroke-width="5" stroke-linecap="round" stroke-linejoin="round"/>
<path d="M372.5 675.5L306.5 701" stroke="#0F172A" stroke-width="5" stroke-linecap="round" stroke-linejoin="round"/>
<path d="M394.5 695L339 739" stroke="#0F172A" stroke-width="5" stroke-linecap="round" stroke-linejoin="round"/>
<path d="M421.5 714.5L379 764" stroke="#0F172A" stroke-width="5" stroke-linecap="round" stroke-linejoin="round"/>
<path d="M451 734L415 782" stroke="#0F172A" stroke-width="5" stroke-linecap="round" stroke-linejoin="round"/>
<path d="M481.5 754L454 798" stroke="#0F172A" stroke-width="5" stroke-linecap="round" stroke-linejoin="round"/>
<path d="M505 769L493 814" stroke="#0F172A" stroke-width="5" stroke-linecap="round" stroke-linejoin="round"/>
<path d="M636 578L601 586" stroke="#0F172A" stroke-width="5" stroke-linecap="round" stroke-linejoin="round"/>
<path d="M648 620.5L601 625" stroke="#0F172A" stroke-width="5" stroke-linecap="round" stroke-linejoin="round"/>
<path d="M651.5 655.5L621.5 657" stroke="#0F172A" stroke-width="5" stroke-linecap="round" stroke-linejoin="round"/>
<path d="M622.003 671.71C623.513 660.858 623.53 655.155 618.103 654.274C610.87 653.1 611.436 662.072 610.209 670.887C608.982 679.702 610.559 686.366 614.423 686.994C617.422 687.48 620.776 680.525 622.003 671.71Z" fill="white" stroke="#0F172A" stroke-width="5"/>
<path d="M565.735 647.801C574.293 637.386 580.257 632.45 584.737 636.998C589.216 641.546 583.616 648.899 576.665 657.358C569.713 665.817 561.981 670.679 558.207 667.577C555.278 665.17 558.784 656.26 565.735 647.801Z" fill="white" stroke="#0F172A" stroke-width="5"/>
<path d="M608.284 669.918C617.074 653.279 617.649 649.978 609.605 646.055C602.72 642.698 596.164 654.016 592.287 665.374C588.41 676.732 588.921 686.053 594.072 688.017C598.071 689.541 602.715 680.46 608.284 669.918Z" fill="white" stroke="#0F172A" stroke-width="5"/>
<path d="M580.349 657.373C587.132 643.171 591.551 636.368 598.194 639.93C607.048 644.677 599.447 654.877 593.937 666.413C588.427 677.948 581.51 684.542 576.78 682.006C573.109 680.038 574.839 668.909 580.349 657.373Z" fill="white" stroke="#0F172A" stroke-width="5"/>
<path d="M121.821 449.144C118.932 436.446 107.441 400.882 102.057 384.688C123.727 385.649 165.753 368.524 165.753 368.524C165.753 368.524 212.66 346.921 229.302 338.799C232.642 352.791 241.015 386.691 247.782 410.351C256.242 439.926 271.753 492.058 271.753 492.058C271.753 492.058 256.767 504.002 214.408 516.913C172.049 529.824 132.303 523.618 133.204 519.413C134.106 515.207 125.431 465.018 121.821 449.144Z" fill="white" stroke="black" stroke-width="5" stroke-linejoin="round"/>
<path d="M141.545 435.885C142.768 429.905 148.051 417.49 152.798 410.299C163.653 393.854 176.347 389.193 182.097 398.689C187.848 408.186 190.74 424.915 181.015 438.94C171.29 452.964 164.561 444.982 170.692 435.24C176.824 425.498 189.378 412.972 199.303 415.754C209.228 418.537 209.566 436.919 201.157 451.463C192.747 466.007 181.583 465.396 191.186 453.604C200.789 441.813 210.59 440.538 213.878 441.838C216.509 442.877 222.076 445.665 214.479 482.199" stroke="black" stroke-width="5" stroke-linecap="round" stroke-linejoin="round"/>
<path d="M754 442.5C743.2 452.5 704.167 484 686 498.5C695.5 530.5 739 575.5 774.5 589C810 602.5 844.5 598 864 594.5C883.5 591 891.5 579.5 902.5 568.5C913.5 557.5 945 520.5 959 503C973 485.5 997 447.5 1013 419C1029 390.5 1033 372.5 1033 370C1033 367.5 979 358 961.5 353.5C944 349 917 337 898.5 328.5C883.7 321.7 865.667 309.333 858.5 304C857.167 306.833 853 315.7 847 328.5C839.5 344.5 812.5 380 801 394.5C789.5 409 767.5 430 754 442.5Z" fill="white" stroke="#0F172A" stroke-width="5" stroke-linecap="round" stroke-linejoin="round"/>
<path d="M898.5 572.5C895.99 576.646 884.658 585.481 873.412 584.007C859.355 582.164 823 567 823 567C823 567 819.694 591.378 772 587.693" stroke="#0F172A" stroke-width="5" stroke-linecap="round" stroke-linejoin="round"/>
<path d="M917.5 384L976 402" stroke="#0F172A" stroke-width="5" stroke-linecap="round" stroke-linejoin="round"/>
<path d="M908.5 398.5L948.5 414" stroke="#0F172A" stroke-width="5" stroke-linecap="round" stroke-linejoin="round"/>
<path d="M858 479L913.5 509.5" stroke="#0F172A" stroke-width="5" stroke-linecap="round" stroke-linejoin="round"/>
<path d="M847 493L876.5 510.5" stroke="#0F172A" stroke-width="5" stroke-linecap="round" stroke-linejoin="round"/>
<path d="M798 432.5L850 462C835.667 477.333 806 512.6 798 519C794.5 521.8 761 497 747.5 482.5L798 432.5Z" stroke="#0F172A" stroke-width="5" stroke-linecap="round" stroke-linejoin="round"/>
<path d="M866 436.5C869.6 436.5 895.167 392.833 907.5 371C909.2 368 857 351 857 351L815 409.5C815 409.5 861.5 436.5 866 436.5Z" stroke="#0F172A" stroke-width="5" stroke-linecap="round" stroke-linejoin="round"/>
<path d="M913.783 434.322L954.771 452.697L946.785 467.206L904.797 447.832L913.783 434.322Z" stroke="#0F172A" stroke-width="5" stroke-linejoin="round"/>
<path d="M835.783 528.322L874.698 547.885L865.216 560.678L825 540L835.783 528.322Z" stroke="#0F172A" stroke-width="5" stroke-linejoin="round"/>
<path d="M908 371.5L816 409" stroke="#0F172A" stroke-width="5" stroke-linecap="round" stroke-linejoin="round"/>
<path d="M857 351.5L866 435.5" stroke="#0F172A" stroke-width="5" stroke-linecap="round" stroke-linejoin="round"/>
<path d="M846.352 463.177L748.888 482.442" stroke="#0F172A" stroke-width="5" stroke-linecap="round" stroke-linejoin="round"/>
<path d="M798.5 434.5L796.917 518.992" stroke="#0F172A" stroke-width="5" stroke-linecap="round" stroke-linejoin="round"/>
</svg>
