<svg width="1056" height="849" viewBox="0 0 1056 849" fill="none" xmlns="http://www.w3.org/2000/svg">
<path opacity="0.5" fill-rule="evenodd" clip-rule="evenodd" d="M421.136 649.643C286.055 640.527 175.917 548.766 134.525 419.922C93.607 292.554 129.224 162.752 235.3 81.181C351.273 -8.00037 507.657 -30.5634 630.975 48.1584C782.231 144.714 916.326 299.068 858.097 468.75C801.547 633.54 595.036 661.378 421.136 649.643Z" fill="white"/>
<path d="M616.674 842.553C624.136 844.576 631.826 840.167 633.85 832.705L707.484 561.141C709.507 553.678 705.098 545.988 697.635 543.965L289.869 433.4C282.407 431.376 274.717 435.785 272.694 443.248L199.059 714.812C197.036 722.275 201.445 729.964 208.908 731.988L616.674 842.553Z" fill="white" stroke="#0F172A" stroke-width="6" stroke-linejoin="round"/>
<path d="M609.488 843.074C616.95 845.098 624.64 840.689 626.664 833.226L701.083 558.767C703.107 551.304 698.697 543.614 691.235 541.591L283.469 431.026C276.006 429.002 268.316 433.411 266.293 440.874L191.874 715.333C189.85 722.796 194.259 730.486 201.722 732.509L609.488 843.074Z" fill="white" stroke="#0F172A" stroke-width="6" stroke-linejoin="round"/>
<path d="M455.016 601.656C455.016 601.656 457.095 590.867 465.114 584.967C473.132 579.068 484.052 580.293 484.052 580.293C484.052 580.293 481.972 591.083 473.954 596.982C465.936 602.882 455.016 601.656 455.016 601.656Z" stroke="#0F172A" stroke-width="6" stroke-linejoin="round"/>
<path d="M451.079 611.505C459.804 612.739 479.102 602.119 489.587 628.174C481.685 632.26 475.607 637.971 472.032 651.156C469.173 661.703 476.55 670.686 480.596 673.859C479.545 675.65 476.168 680.585 471.077 685.998C464.713 692.765 455.35 697.02 448.231 695.089C439.002 692.587 435.279 686.482 430.532 685.195C425.786 683.908 419.225 687.225 409.205 684.508C401.189 682.334 395.013 669.336 393.392 653.045C392.118 640.244 394.756 621.868 406.03 610.613C426.99 589.688 443.992 610.504 451.079 611.505Z" stroke="#0F172A" stroke-width="6"/>
<path d="M496.791 407.481L500.062 327.798L538.005 332.541C538.223 354.359 548.651 402.359 548.128 419.813C547.604 437.268 510.311 418.865 496.791 407.481Z" fill="white" stroke="#0F172A" stroke-width="6" stroke-linecap="round" stroke-linejoin="round"/>
<path d="M508.922 341.131C513.928 343.817 531.927 342.714 537.369 338.769" stroke="#0F172A" stroke-width="6" stroke-linecap="round" stroke-linejoin="round"/>
<path fill-rule="evenodd" clip-rule="evenodd" d="M557.64 200.068C526.78 178.686 489.537 184.903 461.976 202.395C431.399 221.801 402.755 252.058 418.322 288.488C433.935 325.028 480.311 336.992 519.817 337.763C553.82 338.426 582.853 321.859 591.094 291.857C599.843 260.006 589.017 221.808 557.64 200.068Z" fill="white" stroke="#0F172A" stroke-width="6"/>
<path fill-rule="evenodd" clip-rule="evenodd" d="M486.676 305.682C487.045 282.17 521.376 282.883 522.148 305.72C522.349 328.395 486.079 328.835 486.676 305.682Z" fill="#F2B2D5"/>
<path d="M623.358 169.681L622.876 169.317C615.037 163.234 605.994 158.964 596.374 156.804C586.753 154.643 576.786 154.644 567.166 156.807C565.99 157.063 564.836 157.384 563.684 157.705C561.202 158.413 558.763 159.269 556.38 160.271C552.731 161.817 549.22 163.685 545.889 165.853C545.761 165.95 545.66 166.081 545.598 166.231C545.535 166.382 545.513 166.546 545.533 166.708C543.155 165.616 540.717 164.666 538.231 163.864C537.434 163.586 536.636 163.372 535.86 163.137C533.3 162.41 530.719 161.832 528.117 161.362C524.645 160.765 521.142 160.372 517.626 160.186C507.606 159.78 497.572 160.288 487.641 161.704L483.696 162.239C482.144 162.453 481.603 162.645 480.072 162.88C481.619 161.994 483.032 160.885 484.268 159.587C484.613 159.23 484.935 158.851 485.233 158.453C485.485 158.133 485.737 157.833 485.947 157.512C486.735 156.369 487.357 155.116 487.793 153.791C488.054 152.969 488.243 152.124 488.36 151.268C488.576 148.679 488.203 146.073 487.268 143.655C487.186 143.348 487.081 143.048 486.954 142.757C486.954 142.757 486.765 142.243 486.534 141.73C486.303 141.217 486.163 141.034 486.163 141.034C485.985 140.544 483.884 138.395 483.884 138.395C483.884 138.395 483.086 137.741 482.605 137.56C482.48 137.54 482.228 137.56 482.228 137.56C481.57 137.673 481.157 138.33 481.367 139.036C481.367 139.036 481.355 139.25 481.367 139.356C481.703 140.105 482.312 141.666 482.312 141.666C482.312 141.666 482.71 142.693 482.878 143.227C482.998 143.541 483.096 143.862 483.172 144.189C483.653 145.861 483.782 147.618 483.55 149.343C483.559 149.421 483.55 149.579 483.55 149.579C483.457 150.118 483.316 150.648 483.13 151.161C482.344 153.324 481.047 155.256 479.353 156.786C478.087 157.946 476.676 158.931 475.156 159.715L474.149 160.186C474.324 160.111 474.466 159.974 474.548 159.801C475.408 158.518 474.296 154.732 472.869 150.969C472.851 150.877 472.851 150.782 472.869 150.691L471.904 148.381L471.778 148.103C471.61 147.697 471.463 147.333 471.296 146.97C471.128 146.606 470.792 145.815 470.561 145.302C470.49 145.117 470.406 144.939 470.309 144.767C470.309 144.767 470.309 144.639 470.184 144.489C469.785 143.569 469.449 142.906 469.302 142.564C467.605 138.582 465.708 134.692 463.616 130.909C462.347 128.555 460.945 126.278 459.419 124.087C457.348 121.061 454.986 118.253 452.369 115.704C451.593 114.935 450.795 114.207 449.998 113.566C448.116 111.872 446.148 110.28 444.102 108.797C438.127 104.348 431.478 100.924 424.42 98.6604C422.972 98.2327 421.545 97.8691 420.098 97.5911H419.93C409.583 95.9767 399 97.6885 389.652 102.488C379.297 107.15 370.398 114.621 363.927 124.087C358.081 132.966 353.819 142.826 351.337 153.214C350.959 154.732 350.623 156.272 350.33 157.812C348.383 167.945 348.576 178.385 350.896 188.435C351.148 189.612 351.484 190.767 351.819 191.9C352.05 192.691 352.281 193.482 352.554 194.274C355.653 203.854 361.244 212.397 368.731 218.995C370.327 220.39 372.033 221.648 373.83 222.759C374.984 223.543 376.182 224.257 377.418 224.897C378.279 225.368 379.181 225.796 380.083 226.18L380.629 226.394L381.027 226.565C381.489 226.779 381.951 226.95 382.433 227.121C383.587 227.549 384.741 227.934 385.938 228.276C387.134 228.618 388.308 228.896 389.504 229.153L390.218 229.26C391.986 229.603 393.773 229.839 395.569 229.966H397.352C397.1 230.75 396.869 231.541 396.66 232.339C396.601 232.486 396.552 232.636 396.513 232.789C396.261 233.708 396.009 234.649 395.778 235.59C395.778 236.039 395.568 236.488 395.485 236.959C395.065 238.755 394.708 240.594 394.435 242.455C394.205 243.952 393.995 245.449 393.848 246.967C393.848 247.822 393.701 248.678 393.638 249.533C393.629 249.604 393.629 249.676 393.638 249.747C393.303 254.203 393.303 258.678 393.638 263.134C393.638 264.204 393.827 265.273 393.953 266.427C394.079 267.582 394.267 268.759 394.435 269.935C394.729 271.902 395.107 273.87 395.527 275.816C395.946 277.762 396.408 279.579 396.932 281.418C398.549 287.088 400.743 292.573 403.479 297.779C403.731 298.334 404.046 298.89 404.34 299.447L404.633 299.98C405.326 301.2 406.018 302.376 406.732 303.574C410.694 309.924 415.567 315.632 421.188 320.511C424.771 323.63 428.693 326.32 432.876 328.529C434.47 329.399 436.109 330.175 437.786 330.862C440.021 331.789 442.313 332.567 444.647 333.192C449.816 334.553 460.311 336.531 461.306 334.862C462.301 333.192 461.306 325.906 461.306 325.906C461.306 322.698 457.153 310.888 454.048 309.819C452.975 309.558 451.862 309.522 450.774 309.711C444.249 310.31 437.618 310.117 432.246 305.883C427.874 302.434 426.051 297.624 424.49 292.219C419.515 264.215 454.451 252.579 468.271 271.18C470.783 275.302 473.225 279.649 473.708 284.478C473.708 284.478 473.708 284.605 473.708 284.69C473.708 284.776 474.002 285.289 474.128 285.588C473.703 286.404 473.331 287.246 473.016 288.111C473.012 288.155 473.012 288.197 473.016 288.241C472.869 288.625 472.743 289.011 472.617 289.395C472.305 290.32 472.046 291.262 471.841 292.219C471.831 292.418 471.831 292.617 471.841 292.816C471.353 294.939 471.298 297.142 471.681 299.286C472.064 301.431 472.875 303.473 474.065 305.284C478.262 311.1 485.438 311.978 491.964 312.191C493.789 312.191 491.964 309.027 490.621 308.985C484.662 308.792 476.352 308.406 474.674 301.156C474.171 298.897 474.171 296.551 474.674 294.292C474.698 294.131 474.74 293.974 474.8 293.823C474.926 293.224 475.114 292.625 475.303 292.026L475.702 290.913L475.975 290.207C476.585 288.794 477.286 287.423 478.073 286.101L478.639 285.16C479.08 284.456 479.542 283.771 480.003 283.022C480.5 282.364 481.112 281.806 481.808 281.376C483.738 280.05 486.403 278.895 487.809 277.847C490.914 275.709 493.894 273.185 496.769 270.683C498.07 269.592 499.35 268.545 500.588 267.283C501.196 266.77 501.763 266.214 502.329 265.636C503.42 264.674 504.428 263.647 505.498 262.6C506.631 261.487 507.785 260.311 508.897 259.157C510.009 258.002 511.142 256.804 512.254 255.606C512.758 255.072 513.261 254.537 513.744 253.981C513.903 253.821 514.05 253.649 514.185 253.468L515.443 252.099C515.674 251.8 515.947 251.543 516.199 251.244L517.542 249.683C517.794 249.405 518.045 249.127 518.255 248.849C519.535 247.395 520.752 245.919 521.969 244.401L522.221 244.08C523.144 242.968 524.026 241.941 524.907 240.722C526.25 239.012 527.551 237.322 528.789 235.633C528.998 235.355 529.208 235.098 529.376 234.841C531.432 231.99 533.37 229.239 535.188 226.587L536.028 225.304L536.237 224.961C544.253 212.729 549.897 201.31 552.5 192.328C552.307 196.857 551.356 201.319 549.688 205.522C548.534 208.794 547.232 211.938 545.911 215.231V215.466L545.533 216.407C544.548 218.802 543.435 221.219 542.573 223.636C542.524 223.773 542.524 223.926 542.573 224.063C542.554 224.118 542.554 224.179 542.573 224.234C542.587 224.375 542.621 224.512 542.679 224.641C543.182 225.902 545.471 227.72 545.911 226.587C545.911 226.587 554.491 213.435 559.57 196.327C561.668 202.208 565.111 211.703 565.865 213.435C573.252 230.842 577.091 249.49 584.498 266.898C585.127 268.378 585.863 269.807 586.701 271.175C589.009 271.838 592.639 270.255 595.535 268.63L597.445 267.475C597.968 267.133 598.43 266.834 598.808 266.556C600.108 265.659 601.33 264.65 602.46 263.54C611.545 254.623 616.377 241.784 617.692 227.72C620.639 198.799 611.397 177.486 588.169 166.687L586.239 165.788C583.555 164.527 581.371 163.522 579.399 162.816C574.028 160.87 571.2 161.989 562.577 164.662C566.543 163.189 570.64 162.108 574.81 161.433C575.606 161.305 576.404 161.176 577.202 161.112C593.628 159.022 617.252 167.859 623.527 172.389C624.848 172.069 624.826 170.857 623.358 169.681Z" fill="white" stroke="#0F172A" stroke-width="6" stroke-linejoin="round"/>
<path fill-rule="evenodd" clip-rule="evenodd" d="M581.316 307.046C577.015 313.322 569.169 324.255 567.002 311.364C562.804 299.539 579.078 284.182 588.071 292.605C586.335 297.881 584.743 301.834 581.316 307.046Z" fill="#F2B2D5"/>
<path d="M528.691 287.957C532.696 286.948 535.052 281.743 533.601 277.113C532.45 273.442 529.779 271.565 527.006 272.479C523.388 273.673 521.134 279.322 522.502 283.77C523.515 287.062 525.883 288.664 528.691 287.957Z" fill="#0F172A"/>
<path d="M578.917 280.319C579.114 276.419 576.319 272.821 573.071 272.796C570.066 272.771 567.916 275.632 567.745 279.881C567.574 284.107 569.453 287.006 572.563 287.316C575.836 287.64 578.708 284.478 578.917 280.319Z" fill="#0F172A"/>
<path d="M551.96 264.025C554.491 271.785 558.236 286.598 557.021 287.813C555.807 289.028 548.754 288.319 545.38 287.813" stroke="#0F172A" stroke-width="6" stroke-linecap="round" stroke-linejoin="round"/>
<path d="M531.208 299.96C537.282 310.083 549.935 314.638 558.033 302.491" stroke="#0F172A" stroke-width="6" stroke-linecap="round" stroke-linejoin="round"/>
<path d="M593.5 476.5L586 510L424.5 466.5L447.5 441L455 426.5L468 392.5V367.5L495.5 362L512 365L531.5 364H547.5L557.5 365L578 412L592 444.5L593.5 476.5Z" fill="white"/>
<path d="M359 530C359.8 538.8 452.667 602 497 630C500.833 626.5 510.1 618.5 516.5 614.5C524.5 609.5 531.5 604.5 536.5 603.5C541.5 602.5 549 605 541 612C534.6 617.6 527.667 624.333 525 627C531 625.333 545 622 553 622C563 622 571 622 574.5 624.5C578 627 579.5 631.5 574.5 633.5C570.5 635.1 543.833 640.167 531 642.5C541.333 643.333 563.5 645.1 569.5 645.5C577 646 588.5 648.5 588 653C587.5 657.5 586 660.5 563.5 658.5C545.5 656.9 534.333 655.833 531 655.5C542.167 657 566 660.4 572 662C579.5 664 589.5 673.5 569.5 673.5C567.176 673.5 564.796 673.451 562.403 673.363C567.835 674 571.895 674.586 573 675C577 676.5 580 684 567.5 684C550.932 684 517 684.5 487.5 675C463.9 667.4 418 647.5 398 638.5C378 630 336.104 607.794 321.5 593.5C298 570.5 291 560.5 288.5 535C286 509.5 306.5 485.5 316.5 475C326.5 464.5 351.5 442 370 426C388.5 410 396.5 402 418.5 388.5C437.678 376.732 455.336 370.283 467.5 367.166C469.29 366.707 470.961 366.321 472.5 366C484.5 363.5 499.5 364.5 499.5 364.5C499.5 405.77 520.115 414.885 535.5 407.5C560.5 395.5 541 363.5 541 363.5C541 363.5 548.945 363.167 556.204 364.5C559.833 365.167 563.333 366.167 566 367.5C574 371.5 591 378.5 603 396C615 413.5 629.5 435 637 469.5C644.5 504 643 528 643 528L590.5 514.5C590.5 514.5 595 450.5 588 435C582.4 422.6 564.469 382.833 556.204 364.5C548.945 363.167 541 363.5 541 363.5C541 363.5 560.5 395.5 535.5 407.5C520.115 414.885 499.5 405.77 499.5 364.5C499.5 364.5 484.5 363.5 472.5 366C470.961 366.321 469.29 366.707 467.5 367.166C476 453 358 519 359 530Z" fill="white"/>
<path d="M467.5 367.166C476 453 358 519 359 530C359.8 538.8 452.667 602 497 630C500.833 626.5 510.1 618.5 516.5 614.5C524.5 609.5 531.5 604.5 536.5 603.5C541.5 602.5 549 605 541 612C534.6 617.6 527.667 624.333 525 627C531 625.333 545 622 553 622C563 622 571 622 574.5 624.5C578 627 579.5 631.5 574.5 633.5C570.5 635.1 543.833 640.167 531 642.5C541.333 643.333 563.5 645.1 569.5 645.5C577 646 588.5 648.5 588 653C587.5 657.5 586 660.5 563.5 658.5C545.5 656.9 534.333 655.833 531 655.5C542.167 657 566 660.4 572 662C579.5 664 589.5 673.5 569.5 673.5C553.5 673.5 534.833 671.167 527.5 670C541.833 671.167 569.8 673.8 573 675C577 676.5 580 684 567.5 684C550.932 684 517 684.5 487.5 675C463.9 667.4 418 647.5 398 638.5C378 630 336.105 607.794 321.5 593.5C298 570.5 291 560.5 288.5 535C286 509.5 306.5 485.5 316.5 475C326.5 464.5 351.5 442 370 426C388.5 410 396.5 402 418.5 388.5C440.5 375 460.5 368.5 472.5 366C484.5 363.5 499.5 364.5 499.5 364.5C499.5 405.77 520.115 414.885 535.5 407.5C560.5 395.5 541 363.5 541 363.5C541 363.5 548.945 363.167 556.204 364.5M556.204 364.5C559.833 365.167 563.333 366.167 566 367.5C574 371.5 591 378.5 603 396C615 413.5 629.5 435 637 469.5C644.5 504 643 528 643 528L590.5 514.5C590.5 514.5 595 450.5 588 435C582.4 422.6 564.469 382.833 556.204 364.5Z" stroke="#0F172A" stroke-width="6" stroke-linecap="round" stroke-linejoin="round"/>
<path d="M366.5 525.5C385.5 511.5 407.5 492 428 470.5" stroke="#0F172A" stroke-width="6" stroke-linecap="round" stroke-linejoin="round"/>
<path d="M606.5 401L577.5 412" stroke="#0F172A" stroke-width="6" stroke-linecap="round" stroke-linejoin="round"/>
<path d="M447 438.5L408 396.5" stroke="#0F172A" stroke-width="6" stroke-linecap="round" stroke-linejoin="round"/>
<path d="M416.5 475.5L373.5 423.5" stroke="#0F172A" stroke-width="6" stroke-linecap="round" stroke-linejoin="round"/>
<path d="M389 500L345 451" stroke="#0F172A" stroke-width="6" stroke-linecap="round" stroke-linejoin="round"/>
<path d="M363.5 523.5L315 482" stroke="#0F172A" stroke-width="6" stroke-linecap="round" stroke-linejoin="round"/>
<path d="M363.5 535.5L297.5 561" stroke="#0F172A" stroke-width="6" stroke-linecap="round" stroke-linejoin="round"/>
<path d="M385.5 555L330 599" stroke="#0F172A" stroke-width="6" stroke-linecap="round" stroke-linejoin="round"/>
<path d="M412.5 574.5L370 624" stroke="#0F172A" stroke-width="6" stroke-linecap="round" stroke-linejoin="round"/>
<path d="M442 594L406 642" stroke="#0F172A" stroke-width="6" stroke-linecap="round" stroke-linejoin="round"/>
<path d="M472.5 614L445 658" stroke="#0F172A" stroke-width="6" stroke-linecap="round" stroke-linejoin="round"/>
<path d="M496 629L484 674" stroke="#0F172A" stroke-width="6" stroke-linecap="round" stroke-linejoin="round"/>
<path d="M627 438L592 446" stroke="#0F172A" stroke-width="6" stroke-linecap="round" stroke-linejoin="round"/>
<path d="M639 480.5L592 485" stroke="#0F172A" stroke-width="6" stroke-linecap="round" stroke-linejoin="round"/>
<path d="M642.5 515.5L612.5 517" stroke="#0F172A" stroke-width="6" stroke-linecap="round" stroke-linejoin="round"/>
<path d="M613.003 531.71C614.513 520.858 614.53 515.155 609.103 514.274C601.87 513.1 602.436 522.072 601.209 530.887C599.982 539.702 601.559 546.366 605.423 546.994C608.422 547.48 611.776 540.525 613.003 531.71Z" fill="white" stroke="#0F172A" stroke-width="6"/>
<path d="M556.735 507.801C565.293 497.386 571.257 492.45 575.737 496.998C580.216 501.546 574.616 508.899 567.665 517.358C560.713 525.817 552.981 530.679 549.207 527.577C546.278 525.17 549.784 516.26 556.735 507.801Z" fill="white" stroke="#0F172A" stroke-width="6"/>
<path d="M599.284 529.918C608.074 513.279 608.649 509.978 600.605 506.055C593.72 502.698 587.164 514.016 583.287 525.374C579.41 536.732 579.921 546.053 585.072 548.017C589.071 549.541 593.715 540.46 599.284 529.918Z" fill="white" stroke="#0F172A" stroke-width="6"/>
<path d="M571.349 517.373C578.132 503.171 582.551 496.368 589.194 499.93C598.048 504.677 590.447 514.877 584.937 526.413C579.427 537.948 572.51 544.542 567.78 542.006C564.109 540.038 565.839 528.909 571.349 517.373Z" fill="white" stroke="#0F172A" stroke-width="6"/>
<path d="M42.8208 289.145C39.9324 276.446 28.4414 240.883 23.057 224.688C44.7269 225.65 86.753 208.524 86.753 208.524C86.753 208.524 133.66 186.921 150.303 178.799C153.643 192.791 162.015 226.692 168.783 250.352C177.242 279.927 192.754 332.058 192.754 332.058C192.754 332.058 177.768 344.003 135.409 356.914C93.049 369.825 53.3028 363.619 54.2047 359.414C55.1066 355.208 46.4312 305.018 42.8208 289.145Z" fill="white" stroke="#0F172A" stroke-width="6" stroke-linejoin="round"/>
<path d="M62.5451 275.885C63.768 269.906 69.0515 257.49 73.7982 250.3C84.6536 233.854 97.3471 229.194 103.098 238.69C108.849 248.186 111.741 264.916 102.016 278.94C92.2908 292.964 85.5613 284.982 91.6928 275.24C97.8244 265.498 110.379 252.972 120.304 255.755C130.229 258.537 130.567 276.919 122.157 291.463C113.748 306.007 102.584 305.396 112.187 293.605C121.789 281.813 131.591 280.539 134.879 281.838C137.509 282.878 143.077 285.665 135.48 322.2" stroke="#0F172A" stroke-width="6" stroke-linecap="round" stroke-linejoin="round"/>
<path d="M782.688 287.791C772.255 297.451 734.549 327.88 717 341.887C726.177 372.799 768.198 416.269 802.491 429.31C836.784 442.351 870.111 438.004 888.948 434.623C907.785 431.242 915.513 420.133 926.139 409.507C936.765 398.881 967.194 363.139 980.718 346.234C994.242 329.329 1017.43 292.621 1032.88 265.09C1048.34 237.559 1052.2 220.171 1052.2 217.756C1052.2 215.341 1000.04 206.164 983.133 201.817C966.228 197.47 940.146 185.878 922.275 177.667C907.978 171.098 890.558 159.152 883.635 154C882.347 156.737 878.322 165.302 872.526 177.667C865.281 193.123 839.199 227.416 828.09 241.423C816.981 255.43 795.729 275.716 782.688 287.791Z" fill="white" stroke="#0F172A" stroke-width="6" stroke-linecap="round" stroke-linejoin="round"/>
<path d="M922.275 413.371C919.85 417.376 908.903 425.911 898.04 424.487C884.461 422.707 849.342 408.058 849.342 408.058C849.342 408.058 846.148 431.607 800.076 428.047" stroke="#0F172A" stroke-width="6" stroke-linecap="round" stroke-linejoin="round"/>
<path d="M940.629 231.28L997.14 248.668" stroke="#0F172A" stroke-width="6" stroke-linecap="round" stroke-linejoin="round"/>
<path d="M931.935 245.287L970.575 260.26" stroke="#0F172A" stroke-width="6" stroke-linecap="round" stroke-linejoin="round"/>
<path d="M883.152 323.05L936.765 352.513" stroke="#0F172A" stroke-width="6" stroke-linecap="round" stroke-linejoin="round"/>
<path d="M872.526 336.574L901.023 353.479" stroke="#0F172A" stroke-width="6" stroke-linecap="round" stroke-linejoin="round"/>
<path d="M825.192 278.131L875.424 306.628C861.578 321.44 832.92 355.507 825.192 361.69C821.811 364.395 789.45 340.438 776.409 326.431L825.192 278.131Z" stroke="#0F172A" stroke-width="6" stroke-linecap="round" stroke-linejoin="round"/>
<path d="M890.88 281.995C894.358 281.995 919.055 239.813 930.969 218.722C932.611 215.824 882.186 199.402 882.186 199.402L841.614 255.913C841.614 255.913 886.533 281.995 890.88 281.995Z" stroke="#0F172A" stroke-width="6" stroke-linecap="round" stroke-linejoin="round"/>
<path d="M934.399 275.974L973.993 293.724L966.278 307.74L925.718 289.024L934.399 275.974Z" stroke="#0F172A" stroke-width="6" stroke-linejoin="round"/>
<path d="M861.691 370.695L899.282 389.593L890.123 401.951L852.24 381.976L861.691 370.695Z" stroke="#0F172A" stroke-width="6" stroke-linejoin="round"/>
<path d="M929.52 218.722L842.58 255.43" stroke="#0F172A" stroke-width="6" stroke-linecap="round" stroke-linejoin="round"/>
<path d="M882.186 199.885L890.88 281.029" stroke="#0F172A" stroke-width="6" stroke-linecap="round" stroke-linejoin="round"/>
<path d="M871.9 307.765L777.75 326.375" stroke="#0F172A" stroke-width="6" stroke-linecap="round" stroke-linejoin="round"/>
<path d="M825.675 280.063L824.146 361.682" stroke="#0F172A" stroke-width="6" stroke-linecap="round" stroke-linejoin="round"/>
</svg>
