<svg width="32" height="67" viewBox="0 0 32 67" fill="none" xmlns="http://www.w3.org/2000/svg">
<path d="M28.4228 33.4533C27.8615 40.8536 22.6009 46.2544 15.4576 45.7988C8.10843 45.33 1.57086 38.9582 1.98875 31.7282L28.4228 33.4533Z" stroke="#F8BBA6" stroke-width="2"/>
<path d="M24.6246 2.46429C24.3727 5.41701 23.2223 7.83594 21.4848 9.47945C19.7028 11.1651 17.2447 12.0925 14.3277 11.9015C11.4338 11.712 9.34583 10.4612 8.00661 8.55643C6.68838 6.68156 6.03931 4.08847 6.19237 1.07077L24.6246 2.46429Z" stroke="#F5D767" stroke-width="2"/>
<path d="M4.91479 17.2607L27.66 15.6095C27.9932 21.977 22.4051 27.6018 16.1219 28.055C10.0425 28.4935 5.48271 23.8165 4.91479 17.2607Z" stroke="#4C89D1" stroke-width="2"/>
<path d="M15.4701 65.8169C7.38968 66.2747 1.50319 59.7792 1 50.9004V50.8984V50.8964V50.8944V50.8924V50.8904V50.8884V50.8864V50.8844V50.8824V50.8805V50.8785V50.8765V50.8745V50.8725V50.8705V50.8685V50.8665V50.8645V50.8625V50.8605V50.8585V50.8565V50.8545V50.8525V50.8506L30.8237 49.1499C30.8247 49.1611 30.8256 49.1724 30.8264 49.1836C31.2759 57.8571 23.7617 65.3471 15.4701 65.8169Z" stroke="#2F3960" stroke-width="2"/>
</svg>
