<svg width="32" height="67" viewBox="0 0 32 67" fill="none" xmlns="http://www.w3.org/2000/svg">
<g clip-path="url(#clip0)">
<path fill-rule="evenodd" clip-rule="evenodd" d="M2.0788 30.6647L30.5266 32.5213L30.4502 33.5289C29.8557 41.367 24.2164 47.2938 16.4242 46.7968C8.62221 46.2991 1.56577 39.5409 2.02067 31.6705L2.0788 30.6647ZM4.00851 32.7949C4.25647 38.9752 10.0091 44.3835 16.5515 44.8008C22.7285 45.1948 27.4467 40.8042 28.3476 34.3833L4.00851 32.7949Z" fill="#F8BBA6"/>
<path fill-rule="evenodd" clip-rule="evenodd" d="M6.07526 -0.00366211L26.5365 1.54325L26.4507 2.54929C26.1807 5.71384 24.9399 8.37251 23.0017 10.2059C21.0061 12.0936 18.2707 13.1075 15.092 12.8994C11.9134 12.6912 9.54116 11.2976 8.01824 9.13159C6.5401 7.02929 5.86209 4.19901 6.02333 1.02012L6.07526 -0.00366211ZM8.00153 2.14768C8.03578 4.54416 8.63781 6.53552 9.65432 7.98127C10.8098 9.62476 12.6136 10.7328 15.2227 10.9036C17.8781 11.0775 20.0588 10.2366 21.6273 8.75298C22.9716 7.48142 23.9511 5.65461 24.3319 3.38229L8.00153 2.14768Z" fill="#F5D767"/>
<path fill-rule="evenodd" clip-rule="evenodd" d="M28.6905 14.5383L28.7438 15.5573C29.1089 22.5333 23.0385 28.5649 16.279 29.0524C9.52886 29.5393 4.60716 24.3129 4.00372 17.347L3.9162 16.3368L28.6905 14.5383ZM6.1189 18.1821C7.00004 23.766 11.0278 27.426 16.1352 27.0576C21.596 26.6637 26.4368 22.0257 26.7438 16.6849L6.1189 18.1821Z" fill="#4C89D1"/>
<path fill-rule="evenodd" clip-rule="evenodd" d="M31.7336 48.0964L31.8197 49.061C31.8213 49.0785 31.8227 49.0957 31.8239 49.1123L31.8246 49.1221L31.8251 49.1318C32.3057 58.406 24.3154 66.3173 15.5267 66.8153C6.74721 67.3127 0.526959 60.2269 0.00160205 50.957L0 50.9287V49.906L31.7336 48.0964ZM2.07409 51.791C2.89998 59.767 8.30996 65.2209 15.4135 64.8185C22.8935 64.3947 29.6768 57.8679 29.8424 50.2075L2.07409 51.791Z" fill="#2F3960"/>
</g>
<defs>
<clipPath id="clip0">
<rect width="32" height="67" fill="white"/>
</clipPath>
</defs>
</svg>
