<svg width="226" height="237" viewBox="0 0 226 237" fill="none" xmlns="http://www.w3.org/2000/svg">
<path d="M119.5 180C102.443 180 83 177.482 83 174.376C83 171.269 100.744 167 117.801 167C134.858 167 156 171.269 156 174.376C156 177.482 136.557 180 119.5 180Z" fill="#C1C1C1" fill-opacity="0.5" style="mix-blend-mode:multiply"/>
<path fill-rule="evenodd" clip-rule="evenodd" d="M105.056 105.438L86.5725 45.676C83.9613 46.4151 81.3947 47.2604 78.8776 48.2067L98 95.5L76.6939 49.058C62.5526 54.769 50.0571 63.7003 40.1162 74.9431L77.1063 113.066C65.8199 104.512 53.0107 97.1972 38.9136 91.5509C36.0093 90.3876 33.0956 89.3133 30.1767 88.3266C24.2382 97.9388 19.9226 108.66 17.6122 120.107L62.5 134L17.1117 122.78C16.3572 127.146 15.893 131.611 15.7397 136.155L113.766 152.761V237H113.766V152.761L210.635 136.351C210.391 128.666 209.258 121.206 207.335 114.07C203.532 114.404 199.706 114.871 195.862 115.475C181.528 117.728 168 121.729 155.561 127.157L202.924 101.316C201.941 99.0088 200.872 96.7474 199.72 94.5356L167 113.228L198.329 91.9586C192.492 81.5277 184.794 72.2793 175.684 64.6633L156.97 86.3716L170.691 60.7564C154.569 48.9625 134.69 42 113.184 42C109.788 42 106.432 42.1736 103.126 42.5125C102.872 43.9275 102.636 45.3515 102.42 46.7844C99.3618 67.0749 100.476 86.999 105.056 105.438Z" fill="white"/>
<path d="M112.989 154.931L13.2061 136.226C12.5068 136.095 12 135.484 12 134.773C12 133.85 12.8362 133.153 13.744 133.318L112.998 151.434C113.235 151.478 113.479 151.478 113.716 151.434L212.97 133.318C213.878 133.153 214.714 133.85 214.714 134.773C214.714 135.484 214.207 136.095 213.508 136.226L113.726 154.931C113.482 154.977 113.232 154.977 112.989 154.931Z" fill="#222222"/>
<path d="M123.694 109.975C123.694 114.113 120.34 116.984 116.202 116.984C111.098 116.984 108.71 113.146 108.71 109.009C108.71 104.871 112.064 102 116.202 102C120.823 102 123.694 105.838 123.694 109.975Z" fill="#EBEFF0"/>
<path d="M146.675 109.975C146.675 114.113 143.32 116.984 139.183 116.984C134.078 116.984 131.691 113.146 131.691 109.009C131.691 104.871 135.045 102 139.183 102C143.804 102 146.675 105.838 146.675 109.975Z" fill="#EBEFF0"/>
<path d="M155.683 119.866C155.683 122.307 153.705 124 151.264 124C148.253 124 146.845 121.736 146.845 119.296C146.845 116.855 148.823 115.161 151.264 115.161C153.99 115.161 155.683 117.425 155.683 119.866Z" fill="#F8E1DB"/>
<path d="M108.839 119.866C108.839 122.307 106.86 124 104.419 124C101.408 124 100 121.736 100 119.296C100 116.855 101.979 115.161 104.419 115.161C107.145 115.161 108.839 117.425 108.839 119.866Z" fill="#F8E1DB"/>
<path d="M118.209 112.626C116.989 112.626 116.142 111.637 116.142 110.416C116.142 108.911 117.274 108.207 118.494 108.207C119.714 108.207 120.561 109.196 120.561 110.416C120.561 111.779 119.429 112.626 118.209 112.626Z" fill="#222222"/>
<path d="M141.189 112.626C139.969 112.626 139.122 111.637 139.122 110.416C139.122 108.911 140.254 108.207 141.474 108.207C142.695 108.207 143.542 109.196 143.542 110.416C143.542 111.779 142.41 112.626 141.189 112.626Z" fill="#222222"/>
</svg>
