<svg width="105" height="106" viewBox="0 0 105 106" fill="none" xmlns="http://www.w3.org/2000/svg">
<path fill-rule="evenodd" clip-rule="evenodd" d="M73.3908 37.6176C74.2458 35.1189 75.1381 32.2072 76.0742 28.8196C79.9945 14.6328 79.137 1.69017 73.8395 0.226296C67.0149 -1.65955 59.8783 8.45375 55.9581 22.6405C55.8185 23.1455 55.6854 23.6486 55.5585 24.1493C52.4272 12.141 46.552 3.36677 41.9389 4.51126C33.6941 6.55678 36.1883 16.6103 39.2651 29.012C39.419 29.6323 39.5807 30.2444 39.7495 30.8475C39.6329 30.7754 39.5159 30.7034 39.3985 30.6316C27.0791 23.1028 14.7689 20.8011 11.9029 25.4907C9.27829 29.7853 11.4609 34.685 24.9933 44.7137C10.6558 46.2653 -0.839027 50.055 0.04812 58.2539C0.991127 66.9691 11.1907 65.9977 24.4188 64.7377L24.4195 64.7376L24.4207 64.7375C26.1818 64.5698 27.9967 64.3969 29.8505 64.2411C30.5235 64.1846 31.1904 64.1204 31.8505 64.0489C30.6956 65.6553 29.5497 67.3394 28.4256 69.09C18.4137 84.6809 16.5841 94.0327 21.202 96.9981C29.2834 102.188 34.5764 95.06 44.5883 79.4691C46.5025 76.4883 48.2151 73.5305 49.702 70.6758C49.7391 71.7836 49.7917 72.9886 49.8488 74.2963L49.8489 74.2982C49.9618 76.8835 50.0922 79.8703 50.1549 83.3013C50.3792 95.5639 51.792 105.482 57.891 105.371C65.2258 105.236 65.0486 95.6625 64.8275 83.7156L64.8149 83.0331C64.4669 80.0985 64.1138 77.5318 63.7534 75.2874C64.6275 76.1815 65.5616 77.1113 66.5585 78.0787C77.5395 87.4525 88.8303 93.0274 93.062 88.0701C98.8008 81.3475 91.2227 70.0375 80.2418 60.6636C79.5481 60.0714 78.853 59.508 78.1585 58.9732C79.1671 58.6571 80.2157 58.3201 81.306 57.9615C96.1399 53.0821 107.463 45.0613 104.537 36.1657C101.779 27.7813 92.1066 31.1617 80.063 35.3708C78.0498 36.0744 75.9703 36.8012 73.8458 37.5C73.6932 37.5393 73.5415 37.5785 73.3908 37.6176Z" fill="white"/>
<path d="M49 53.3136C49 53.5286 49 53.7437 49 53.9588C49.3157 59.8153 53.1358 64.2988 58.5345 63.9844C63.9331 63.6701 68.8424 58.6738 68.5425 52.8172C68.5267 52.6022 68.4951 52.3871 68.4793 52.172L49 53.3136Z" fill="black"/>
<ellipse cx="53.4644" cy="44.957" rx="2.86179" ry="2.95699" fill="black"/>
<ellipse cx="65.5984" cy="45.4301" rx="2.86179" ry="2.95699" fill="black"/>
</svg>
