<svg width="226" height="226" viewBox="0 0 226 226" fill="none" xmlns="http://www.w3.org/2000/svg">
<path d="M226 112.392C226 175.136 182.723 226 110.596 226C48.1876 226 0 175.136 0 112.392C0 49.6488 45.7833 0 115.404 0C177.812 0 226 49.6488 226 112.392Z" fill="#F8D75F"/>
<path d="M112.458 188.108C86.074 187.868 56.0544 181.615 56.1215 174.24C56.1887 166.865 80.3267 159.219 106.71 159.459C133.094 159.699 169.104 167.893 169.037 175.268C168.97 182.643 138.841 188.348 112.458 188.108Z" fill="#C1C1C1" fill-opacity="0.5" style="mix-blend-mode:multiply"/>
<path fill-rule="evenodd" clip-rule="evenodd" d="M194.723 138.211L121.205 158.912L121.37 159.5H120.134C119.648 156.108 116.731 153.5 113.205 153.5C109.678 153.5 106.761 156.108 106.275 159.5H105.784L105.949 158.912L32.6699 138.278C36.8959 121.288 46.3252 106.355 59.168 95.2683L68.2046 100.5L62.8403 92.2748C76.9245 81.4414 94.5623 75 113.705 75C133.785 75 152.21 82.0883 166.614 93.8992L152.205 107.71L169.027 95.9555C181.452 106.954 190.575 121.597 194.723 138.211ZM197.2 159.368L196.73 159.5H197.199L197.2 159.368ZM30.4233 159.5L30.2098 159.44L30.2105 159.5H30.4233Z" fill="#EFF0F2"/>
<circle cx="89.0975" cy="127.393" r="11.8929" fill="white"/>
<circle cx="138.097" cy="127.393" r="11.8929" fill="white"/>
<path d="M25.6733 137.686L106.913 159.042L105.642 163.878L24.4297 142.522L25.6733 137.686Z" fill="#AFD1FF"/>
<path d="M119.279 159.192L200.104 139.03L201.144 142.898L120.418 164.06L119.279 159.192Z" fill="#AFD1FF"/>
<ellipse cx="90.8618" cy="131.957" rx="2.86179" ry="2.95699" fill="black"/>
<ellipse cx="139.862" cy="131.957" rx="2.86179" ry="2.95699" fill="black"/>
<path fill-rule="evenodd" clip-rule="evenodd" d="M164.187 51.4006C164.06 50.992 163.919 50.5879 163.767 50.1928C162.111 45.909 158.553 41.4841 156.49 42.049C154.428 42.6139 154.643 47.9547 156.298 52.2384C157.818 56.1729 160.944 60.2264 163.042 60.4237C163.137 60.4995 163.243 60.5621 163.358 60.6105C165.43 61.4793 169.923 57.4281 172.391 53.2561C174.859 49.0842 175.993 43.6244 173.922 42.7556C171.85 41.8868 167.357 45.938 164.889 50.1099C164.641 50.5291 164.406 50.9614 164.187 51.4006Z" fill="#FF4635"/>
<path fill-rule="evenodd" clip-rule="evenodd" d="M61.6058 128.874C61.6719 128.662 61.7447 128.452 61.8239 128.247C62.682 126.027 64.527 123.733 65.5963 124.025C66.6655 124.318 66.5541 127.087 65.696 129.308C64.9078 131.348 63.2872 133.449 62.1997 133.552C62.15 133.591 62.0954 133.623 62.0356 133.649C60.9616 134.099 58.6323 131.999 57.3526 129.836C56.073 127.673 55.485 124.842 56.559 124.392C57.6331 123.941 59.9624 126.042 61.242 128.205C61.3706 128.422 61.4922 128.646 61.6058 128.874Z" fill="#F8BBA6"/>
</svg>
