<svg width="30" height="70" viewBox="0 0 30 70" fill="none" xmlns="http://www.w3.org/2000/svg">
<g clip-path="url(#clip0)">
<path d="M25.8327 39.4595C25.2957 46.4834 20.4396 51.5444 13.915 51.1165C7.18797 50.6754 1.15844 44.6814 1.51172 37.828L25.8327 39.4595Z" stroke="#F8BBA6" stroke-width="2"/>
<path d="M1.81946 22.7253L26.1174 20.9614C26.5144 27.7926 20.5291 33.8314 13.8014 34.3167C7.27893 34.7871 2.40128 29.7506 1.81946 22.7253Z" stroke="#4C89D1" stroke-width="2"/>
<path d="M1.00273 55.4872L28.465 53.9515C28.8389 61.7253 21.955 68.4676 14.3176 68.8921C6.88708 69.3048 1.48468 63.4664 1.00273 55.4872Z" stroke="#2F3960" stroke-width="2"/>
<path d="M21.0831 9.33305C21.1043 13.8909 17.4159 17.5867 12.8475 17.609C8.27802 17.6076 4.56946 13.9324 4.56947 9.37599L4.56945 9.37134C4.54826 4.81281 8.23777 1.11662 12.8071 1.09536C17.3657 1.07416 21.0619 4.76368 21.0831 9.33305Z" stroke="#F5D767" stroke-width="2"/>
</g>
<defs>
<clipPath id="clip0">
<rect width="29.6154" height="70" fill="white"/>
</clipPath>
</defs>
</svg>
