<?xml version="1.0" encoding="utf-8"?>
<!-- Generator: Adobe Illustrator 21.1.0, SVG Export Plug-In . SVG Version: 6.00 Build 0)  -->
<svg version="1.1" id="Layer_1" xmlns="http://www.w3.org/2000/svg" xmlns:xlink="http://www.w3.org/1999/xlink" x="0px" y="0px"
	 viewBox="0 0 425.2 425.2" style="enable-background:new 0 0 425.2 425.2;" xml:space="preserve">
<style type="text/css">
	.st0{clip-path:url(#SVGID_2_);fill:#F8BBA6;}
	.st1{clip-path:url(#SVGID_2_);fill:#5088C7;}
	.st2{clip-path:url(#SVGID_2_);fill:#2F3960;}
	.st3{clip-path:url(#SVGID_2_);fill:#F4CB20;}
</style>
<g>
	<defs>
		
			<rect id="SVGID_1_" x="149.5" y="66.5" transform="matrix(1 -3.016324e-03 3.016324e-03 1 -0.6423 0.6387)" width="123.9" height="293.5"/>
	</defs>
	<clipPath id="SVGID_2_">
		<use xlink:href="#SVGID_1_"  style="overflow:visible;"/>
	</clipPath>
	<path class="st0" d="M262.7,228.1c0,1.2,0,2.3-0.1,3.5c-2.1,31.6-24.1,55.6-54.6,53.6c-30.5-2-58.1-29.3-56-61
		c0.1-1.2,0.3-2.3,0.4-3.5L262.7,228.1z"/>
	<path class="st1" d="M153.1,157.8c0,1.2,0,2.3,0.1,3.5c2.3,31.6,24.4,55.5,54.9,53.3c30.5-2.2,57.9-29.7,55.6-61.3
		c-0.1-1.2-0.3-2.3-0.4-3.5L153.1,157.8z"/>
	<path class="st2" d="M149.8,295.4c0,1.3,0,2.6,0,3.9c2,35.4,26.2,62.5,60.4,60.6c34.2-1.9,65.3-32.1,63.4-67.5
		c-0.1-1.3-0.3-2.6-0.4-3.9L149.8,295.4z"/>
	<path class="st3" d="M203.8,144.4c21.5-0.1,38.9-17.5,38.8-39c-0.1-21.5-17.5-38.9-39-38.8c-21.5,0.1-38.9,17.5-38.8,39
		C164.8,127.1,182.3,144.4,203.8,144.4"/>
</g>
</svg>
