<svg width="426" height="426" viewBox="0 0 426 426" fill="none" xmlns="http://www.w3.org/2000/svg">
<path d="M252.149 211.213C252.149 212.168 252.149 213.043 252.07 213.998C250.399 239.135 232.899 258.226 208.637 256.635C184.374 255.044 162.419 233.328 164.09 208.111C164.169 207.156 164.328 206.281 164.408 205.327L252.149 211.213Z" fill="#222222"/>
<path d="M169 162.952C169 163.795 169 164.569 169.07 165.413C170.687 187.631 186.226 204.435 207.671 202.888C229.115 201.341 248.381 182.006 246.763 159.788C246.693 158.944 246.552 158.171 246.482 157.327L169 162.952Z" fill="#222222"/>
<path d="M159 264.816C159 265.85 159 266.884 159 267.918C160.591 296.078 179.842 317.636 207.047 316.124C234.253 314.613 258.992 290.589 257.481 262.429C257.401 261.395 257.242 260.361 257.162 259.327L159 264.816Z" fill="#222222"/>
<path d="M182.351 125.072C180.421 139.312 190.322 152.445 204.562 154.375C216.34 156.028 231.935 146.405 233.865 132.165C235.796 117.925 227.8 104.796 213.56 102.866C199.32 100.935 184.348 110.841 182.351 125.072Z" fill="#222222"/>
</svg>
