<svg width="35" height="35" viewBox="0 0 35 35" fill="none" xmlns="http://www.w3.org/2000/svg">
<path fill-rule="evenodd" clip-rule="evenodd" d="M17.4697 26.4848C23.0843 26.4848 26.4545 22.8368 26.4545 18.5C26.4545 12.9372 21.8543 8.51512 17.4697 8.51512C14.5422 8.51512 12.43 9.72108 10.9141 11.4736C9.25135 13.3958 8.4848 15.7999 8.4848 17.5C8.4848 20.5032 9.43474 22.686 10.7061 24.0452C11.8981 25.3195 13.937 26.4848 17.4697 26.4848ZM17.4697 34.4848C26.8501 34.4848 34.4545 27.8804 34.4545 18.5C34.4545 9.1195 26.8501 0.515121 17.4697 0.515121C6.5 0.515121 0.484802 10.1195 0.484802 17.5C0.484802 26.8804 6.5 34.4848 17.4697 34.4848Z" fill="white"/>
</svg>
