<svg width="226" height="226" viewBox="0 0 226 226" fill="none" xmlns="http://www.w3.org/2000/svg">
<path d="M106.5 193C86.639 193 64 190.703 64 187.87C64 185.037 85.6135 182 105.474 182C125.335 182 149 185.037 149 187.87C149 190.703 126.361 193 106.5 193Z" fill="#C1C1C1" fill-opacity="0.5" style="mix-blend-mode:multiply"/>
<path fill-rule="evenodd" clip-rule="evenodd" d="M106.075 105.535L101.733 76.3017C106.526 75.4464 111.461 75 116.5 75C135.721 75 153.425 81.4942 167.537 92.4082L155.205 105.71L170.755 95.0267C188.401 110.124 199.676 132.451 199.993 157.42L117 169L33.0087 157.28C33.3559 133.031 44.0403 111.282 60.8532 96.2439L68.2046 100.5L63.7922 93.7344C71.8306 87.1846 81.1116 82.1015 91.227 78.893L106.075 105.535Z" fill="white"/>
<path fill-rule="evenodd" clip-rule="evenodd" d="M116.443 173.672L116.45 173.763L26.4216 156.589L27.3981 151.432L115.691 168.048L205.249 151.024L206.246 156.177L116.443 173.672Z" fill="#F8D75F"/>
<circle cx="115.903" cy="125.425" r="4.42473" fill="#222222"/>
<circle cx="134.663" cy="127.133" r="4.42473" fill="#222222"/>
</svg>
