<svg width="226" height="237" viewBox="0 0 226 237" fill="none" xmlns="http://www.w3.org/2000/svg">
<path fill-rule="evenodd" clip-rule="evenodd" d="M105.056 105.438L86.5725 45.676C83.9613 46.4151 81.3947 47.2604 78.8776 48.2067L98 95.5L76.6939 49.058C62.5526 54.769 50.0571 63.7003 40.1162 74.9431L77.1063 113.066C65.8199 104.512 53.0107 97.1972 38.9136 91.5509C36.0093 90.3876 33.0956 89.3133 30.1767 88.3266C24.2382 97.9388 19.9226 108.66 17.6122 120.107L62.5 134L17.1117 122.78C16.3572 127.146 15.893 131.611 15.7397 136.155L113.766 152.761V237H113.766V152.761L210.635 136.351C210.391 128.666 209.258 121.206 207.335 114.07C203.532 114.404 199.706 114.871 195.862 115.475C181.528 117.728 168 121.729 155.561 127.157L202.924 101.316C201.941 99.0088 200.872 96.7474 199.72 94.5356L167 113.228L198.329 91.9586C192.492 81.5277 184.794 72.2793 175.684 64.6633L156.97 86.3716L170.691 60.7564C154.569 48.9625 134.69 42 113.184 42C109.788 42 106.432 42.1736 103.126 42.5125C102.872 43.9275 102.636 45.3515 102.42 46.7844C99.3618 67.0749 100.476 86.999 105.056 105.438Z" fill="white"/>
<path d="M94 129.984C94 134.126 90.6421 137 86.5 137C81.3901 137 79 133.158 79 129.016C79 124.874 82.3579 122 86.5 122C91.126 122 94 125.842 94 129.984Z" fill="#F8E1DB"/>
<path d="M154 129.984C154 134.126 150.642 137 146.5 137C141.39 137 139 133.158 139 129.016C139 124.874 142.358 122 146.5 122C151.126 122 154 125.842 154 129.984Z" fill="#F8E1DB"/>
<path d="M97.9008 124.331C95.1394 124.331 93.2234 122.092 93.2234 119.331C93.2234 115.924 95.7845 114.331 98.546 114.331C101.307 114.331 103.223 116.569 103.223 119.331C103.223 122.415 100.662 124.331 97.9008 124.331Z" fill="#222222"/>
<path d="M134.151 124.331C131.39 124.331 129.474 122.092 129.474 119.331C129.474 115.924 132.035 114.331 134.796 114.331C137.558 114.331 139.474 116.569 139.474 119.331C139.474 122.415 136.912 124.331 134.151 124.331Z" fill="#222222"/>
<path d="M113.5 180C96.4429 180 77 177.482 77 174.376C77 171.269 94.7442 167 111.801 167C128.858 167 150 171.269 150 174.376C150 177.482 130.557 180 113.5 180Z" fill="#C1C1C1" fill-opacity="0.5" style="mix-blend-mode:multiply"/>
<path d="M112.989 154.931L13.2061 136.226C12.5068 136.095 12 135.484 12 134.773C12 133.85 12.8362 133.153 13.744 133.318L112.998 151.434C113.235 151.478 113.479 151.478 113.716 151.434L212.97 133.318C213.878 133.153 214.714 133.85 214.714 134.773C214.714 135.484 214.207 136.095 213.508 136.226L113.726 154.931C113.482 154.977 113.232 154.977 112.989 154.931Z" fill="#222222"/>
</svg>
