<svg width="304" height="250" viewBox="0 0 304 250" fill="none" xmlns="http://www.w3.org/2000/svg">
<path fill-rule="evenodd" clip-rule="evenodd" d="M93.3053 50.2006C81.2534 48.2865 72.041 37.8477 72.041 25.2572C72.041 11.308 83.349 0 97.2981 0C110.219 0 120.873 9.70171 122.374 22.2177C129.026 19.0659 136.854 17.2518 146.215 16.7918C173.923 15.4228 195.463 32.4375 202.17 55.9908C203.003 72.7923 213.429 78.8074 225.41 85.72C234.775 91.123 245.09 97.0742 252.518 109.153C258.613 119.064 258.041 130.048 256.682 140.958L256.448 142.776C256.342 143.585 256.233 144.393 256.124 145.2C256.029 145.903 255.935 146.605 255.842 147.306L255.606 149.111C253.486 165.618 255.577 181.292 277.587 192.06C298.347 202.219 299.625 215.524 301.204 231.973C301.654 236.661 302.129 241.605 303.086 246.804L0.0788372 247.219C-1.06246 221.206 10.1878 200.434 33.8297 190.163C51.9897 182.273 48.5052 167.052 44.6369 150.155C40.951 134.054 36.9166 116.431 50.9282 102.179C57.3156 95.6823 62.4985 90.6305 66.8079 86.43C81.343 72.2624 85.9414 67.7803 93.3053 50.2006Z" fill="#FFE300"/>
<path d="M294.745 250C193.522 108.468 66.9627 187.784 25.0255 250H159.885H294.745Z" fill="white"/>
<path d="M27.8061 244.719C72.5239 188.065 187.96 108.749 291.964 244.719" stroke="#0F172A" stroke-width="2" stroke-linecap="round" stroke-linejoin="round"/>
<path d="M211.326 179.515C205.922 225.897 187.549 240.414 165.446 239.298C144.065 239.298 122.606 225.63 112.615 180.765" stroke="#0F172A" stroke-width="2" stroke-linecap="round" stroke-linejoin="round"/>
<path fill-rule="evenodd" clip-rule="evenodd" d="M135.838 183.046L135.76 132.859L191.698 125.093V183.046" fill="white"/>
<path d="M135.838 183.046L135.76 132.859L191.698 125.093V183.046" stroke="#0F172A" stroke-width="2" stroke-linecap="round" stroke-linejoin="round"/>
<mask id="mask0_4140_5" style="mask-type:alpha" maskUnits="userSpaceOnUse" x="135" y="125" width="57" height="87">
<path d="M135.76 132.859L191.698 125.093L191.645 183.243C191.631 198.67 179.121 211.172 163.692 211.172C148.265 211.172 135.76 198.667 135.76 183.243V132.859Z" fill="white"/>
</mask>
<g mask="url(#mask0_4140_5)">
<path d="M184.96 169.296C225.666 169.296 258.663 138.742 258.663 101.051C258.663 63.3629 225.666 32.8068 184.96 32.8068C144.255 32.8068 111.258 63.3629 111.258 101.051C111.258 138.742 144.255 169.296 184.96 169.296Z" fill="#0F172A"/>
</g>
<ellipse cx="201.581" cy="126.25" rx="12.5" ry="12.5" stroke="#0F172A" stroke-width="2"/>
<path fill-rule="evenodd" clip-rule="evenodd" d="M189.268 50.4804L202.003 80.4721C213.278 107.032 200.896 137.694 174.347 148.959C147.798 160.228 117.136 147.832 105.86 121.272L93.1253 91.2803C81.85 64.7227 94.232 34.0581 120.781 22.7939C147.331 11.5241 177.992 23.9228 189.268 50.4804Z" fill="white" stroke="#0F172A" stroke-width="2" stroke-linecap="round" stroke-linejoin="round"/>
<mask id="mask1_4140_5" style="mask-type:alpha" maskUnits="userSpaceOnUse" x="86" y="16" width="123" height="143">
<path d="M190.537 49.7753L204.208 82.183C215.937 109.988 203.061 142.09 175.447 153.884C147.835 165.678 115.94 152.698 104.21 124.891L90.5366 92.4856C78.8073 64.6778 91.6834 32.5758 119.298 20.7847C146.91 8.99068 178.805 21.9703 190.537 49.7753Z" fill="white"/>
</mask>
<g mask="url(#mask1_4140_5)">
<path fill-rule="evenodd" clip-rule="evenodd" d="M104.588 3.68211C108.094 7.29413 111.266 11.2236 114.063 15.4215C138.441 4.76509 177.348 -6.39015 201.395 2.37713C234.683 14.5131 258.69 38.5538 246.684 48.0579C239.787 53.518 231.251 60.8558 222.473 63.8253C196.53 72.6022 156.983 73.1412 127.8 61.9548C127.541 82.1673 119.781 102.162 104.531 117.302C98.1201 123.68 90.6582 128.877 82.4822 132.658C66.3639 140.109 54.5402 68.581 61.8675 28.0397C67.9479 -5.59367 90.538 -10.81 104.588 3.68211Z" fill="#FFE300"/>
</g>
<path d="M158.692 94.3084L168.686 108.576L162.415 112.608" stroke="#0F172A" stroke-width="2" stroke-linecap="round" stroke-linejoin="round"/>
<path d="M187.029 91.7505C190.408 90.3157 191.854 86.1086 190.26 82.352C188.664 78.5982 184.633 76.7157 181.254 78.1477C177.876 79.5825 176.43 83.7896 178.023 87.5462C179.619 91.3 183.651 93.1825 187.029 91.7505Z" fill="#0058FF"/>
<path d="M134.782 111.149C138.16 109.714 139.606 105.507 138.013 101.75C136.417 97.9966 132.385 96.1141 129.007 97.5462C125.628 98.981 124.182 103.188 125.776 106.945C127.372 110.698 131.404 112.581 134.782 111.149Z" fill="#0058FF"/>
<path d="M173.179 127.562L158.97 130.356" stroke="#0F172A" stroke-width="2" stroke-linecap="round" stroke-linejoin="round"/>
<path fill-rule="evenodd" clip-rule="evenodd" d="M197.881 105.294C194.923 109.339 188.766 116.156 184.706 107.689C181.313 99.7213 192.738 89.988 199.531 95.8326C202.569 98.447 200.231 101.932 197.881 105.294Z" fill="#F1DBE7"/>
<path fill-rule="evenodd" clip-rule="evenodd" d="M135.363 132.001C140.378 131.164 147.084 128.215 143.516 118.508C140.478 110.241 123.783 117.778 126.037 126.469C127.046 130.356 131.242 132.6 135.363 132.001Z" fill="#F1DBE7"/>
<ellipse cx="115.102" cy="154.056" rx="12.5" ry="12.5" stroke="#0F172A" stroke-width="2"/>
<path fill-rule="evenodd" clip-rule="evenodd" d="M104.723 109.605L98.7782 111.114C96.9167 111.586 95.1885 112.48 93.7268 113.725C92.2651 114.971 91.109 116.535 90.3476 118.298C89.5862 120.061 89.2398 121.975 89.3353 123.894C89.4307 125.812 89.9653 127.682 90.898 129.361C93.2235 133.556 96.7618 136.952 101.05 139.103C105.337 141.253 110.175 142.059 114.928 141.415L118.051 140.989" fill="white"/>
<path d="M104.723 109.605L98.7782 111.114C96.9167 111.586 95.1885 112.48 93.7268 113.725C92.2651 114.971 91.109 116.535 90.3476 118.298C89.5862 120.061 89.2398 121.975 89.3353 123.894C89.4307 125.812 89.9653 127.682 90.898 129.361C93.2235 133.556 96.7618 136.952 101.05 139.103C105.337 141.253 110.175 142.059 114.928 141.415L118.051 140.989M102.179 121.822L106.328 131.596M104.787 127.965L98.6531 126.216" stroke="#0F172A" stroke-width="2" stroke-linecap="round" stroke-linejoin="round"/>
</svg>
