<svg width="290" height="261" viewBox="0 0 290 261" fill="none" xmlns="http://www.w3.org/2000/svg">
<path fill-rule="evenodd" clip-rule="evenodd" d="M70.0853 48.674C60.1702 45.3604 53.0241 36.0037 53.0241 24.9789C53.0241 11.1834 64.2133 1.90735e-06 78.0159 1.90735e-06C87.6021 1.90735e-06 95.9278 5.39452 100.12 13.312C106.817 10.0978 114.712 8.24991 124.173 7.7852C151.873 6.41735 173.406 23.4178 180.11 46.9512C184.894 63.744 196.949 69.8562 209.684 76.3125C220.444 81.7681 231.69 87.4695 239.441 100.069C245.534 109.972 244.962 120.946 243.604 131.847L243.37 133.663C243.264 134.471 243.155 135.279 243.047 136.085C242.952 136.787 242.857 137.489 242.765 138.19L242.528 139.993C240.409 156.486 242.5 172.147 264.502 182.906C284.669 192.769 286.445 218.17 287.978 240.098C288.473 247.167 288.941 253.875 289.993 259.585L0.078827 260C-1.06209 234.008 9.18481 191.273 32.8189 181.01C50.9729 173.127 47.4895 157.918 43.6225 141.036C39.9378 124.948 35.9048 107.341 49.9117 93.1008C68.1756 74.533 68.4953 67.7786 68.9128 58.9543C69.055 55.95 69.2085 52.7059 70.0853 48.674Z" fill="#FFE300"/>
<path d="M283.903 260C180.735 92.4327 51.7433 186.339 9 260H146.452H283.903Z" fill="white"/>
<path d="M9.00757 260C54.5835 188.311 177.239 88.9458 283.239 260" stroke="#0F172A" stroke-width="2" stroke-linecap="round" stroke-linejoin="round"/>
<path d="M198.882 176.549C193.373 231.463 174.647 248.65 152.12 247.33C130.327 247.33 108.456 231.147 98.2726 178.029" stroke="#0F172A" stroke-width="2" stroke-linecap="round" stroke-linejoin="round"/>
<path fill-rule="evenodd" clip-rule="evenodd" d="M117.799 175.898L117.721 125.753L173.64 117.993V175.898" fill="white"/>
<path d="M117.799 175.898L117.721 125.753L173.64 117.993V175.898" stroke="#0F172A" stroke-width="2" stroke-linecap="round" stroke-linejoin="round"/>
<mask id="mask0_4048_34" style="mask-type:alpha" maskUnits="userSpaceOnUse" x="117" y="117" width="57" height="87">
<path d="M117.721 125.753L173.64 117.993L173.587 176.095C173.574 191.509 161.068 204 145.643 204C130.221 204 117.721 191.506 117.721 176.095V125.753Z" fill="white"/>
</mask>
<g mask="url(#mask0_4048_34)">
<path d="M166.905 162.159C207.597 162.159 240.584 131.631 240.584 93.972C240.584 56.3154 207.597 25.7851 166.905 25.7851C126.213 25.7851 93.2265 56.3154 93.2265 93.972C93.2265 131.631 126.213 162.159 166.905 162.159Z" fill="#0F172A"/>
</g>
<ellipse cx="183.521" cy="119.15" rx="12.4959" ry="12.4895" stroke="#0F172A" stroke-width="2"/>
<path fill-rule="evenodd" clip-rule="evenodd" d="M171.211 43.4437L183.942 73.4101C195.213 99.9481 182.835 130.584 156.295 141.839C129.754 153.099 99.1028 140.714 87.8312 114.176L75.1002 84.2092C63.8286 57.674 76.2065 27.0353 102.747 15.7806C129.288 4.52024 159.939 16.9085 171.211 43.4437Z" fill="white" stroke="#0F172A" stroke-width="2" stroke-linecap="round" stroke-linejoin="round"/>
<path fill-rule="evenodd" clip-rule="evenodd" d="M181.527 61.9291C158.37 65.0182 131.255 63.1424 109.764 54.9085C109.504 75.1039 101.747 95.0813 86.5017 110.209C85.6944 111.012 84.8704 111.796 84.0303 112.561L72.3506 85.0936C60.5228 57.2742 73.5115 25.1528 101.362 13.3533C129.212 1.54808 161.376 14.5359 173.204 42.3553L181.527 61.9291Z" fill="#FFE300"/>
<path d="M140.645 87.2348L150.636 101.49L144.367 105.519" stroke="#0F172A" stroke-width="2" stroke-linecap="round" stroke-linejoin="round"/>
<path d="M168.973 84.679C172.351 83.2454 173.796 79.0419 172.203 75.2885C170.608 71.5378 166.577 69.6569 163.2 71.0877C159.823 72.5213 158.377 76.7248 159.97 80.4783C161.565 84.2289 165.596 86.1098 168.973 84.679Z" fill="#0058FF"/>
<path d="M116.743 104.061C120.12 102.628 121.566 98.424 119.973 94.6706C118.378 90.9199 114.347 89.039 110.97 90.4698C107.592 91.9034 106.147 96.1069 107.74 99.8604C109.335 103.611 113.366 105.492 116.743 104.061Z" fill="#0058FF"/>
<path d="M140 124.895C149.388 124.895 157 121.317 157 116.901" stroke="#0F172A" stroke-width="2" stroke-linecap="round" stroke-linejoin="round"/>
<path fill-rule="evenodd" clip-rule="evenodd" d="M179.821 98.2114C176.865 102.252 170.709 109.064 166.651 100.604C163.258 92.6432 174.68 82.9181 181.47 88.7577C184.508 91.3699 182.171 94.8515 179.821 98.2114Z" fill="#F1DBE7"/>
<path fill-rule="evenodd" clip-rule="evenodd" d="M117.324 124.896C122.337 124.059 129.041 121.113 125.474 111.414C122.437 103.154 105.748 110.685 108.001 119.368C109.01 123.252 113.205 125.494 117.324 124.896Z" fill="#F1DBE7"/>
<ellipse cx="97.0697" cy="146.932" rx="12.4959" ry="12.4895" stroke="#0F172A" stroke-width="2"/>
<path fill-rule="evenodd" clip-rule="evenodd" d="M86.6942 102.518L80.7513 104.027C78.8904 104.498 77.1627 105.391 75.7015 106.635C74.2403 107.88 73.0845 109.443 72.3234 111.204C71.5622 112.966 71.216 114.879 71.3114 116.795C71.4068 118.711 71.9413 120.58 72.8736 122.258C75.1984 126.45 78.7355 129.842 83.0218 131.991C87.3082 134.14 92.1438 134.945 96.8957 134.301L100.017 133.876" fill="white"/>
<path d="M86.6942 102.518L80.7513 104.027C78.8904 104.498 77.1627 105.391 75.7015 106.635C74.2403 107.88 73.0845 109.443 72.3234 111.204C71.5622 112.966 71.216 114.879 71.3114 116.795C71.4068 118.711 71.9413 120.58 72.8736 122.258C75.1984 126.45 78.7355 129.842 83.0218 131.991C87.3082 134.14 92.1438 134.945 96.8957 134.301L100.017 133.876M84.1508 114.726L88.2982 124.491M86.7582 120.863L80.6262 119.115" stroke="#0F172A" stroke-width="2" stroke-linecap="round" stroke-linejoin="round"/>
</svg>
