<svg width="245" height="200" viewBox="0 0 245 200" fill="none" xmlns="http://www.w3.org/2000/svg">
<path fill-rule="evenodd" clip-rule="evenodd" d="M74.6208 40.3719C64.2864 39.4688 56.1798 30.7935 56.1798 20.2247C56.1798 9.05491 65.2347 0 76.4045 0C85.1095 0 92.53 5.49959 95.381 13.2138C96.9903 13.927 98.1356 14.8377 98.2638 16.2224C103.775 13.4851 110.301 11.9158 118.166 11.5293C140.559 10.4229 157.967 24.1737 163.386 43.2086C164.06 56.787 172.486 61.6482 182.169 67.2346C189.737 71.6012 198.073 76.4108 204.076 86.1725C209.002 94.1825 208.539 103.059 207.441 111.876L207.252 113.346C207.166 113.999 207.078 114.652 206.99 115.304C206.914 115.873 206.838 116.44 206.763 117.007L206.572 118.465C204.858 131.806 206.548 144.473 224.336 153.175C241.114 161.385 242.146 172.137 243.423 185.431C243.787 189.22 244.17 193.215 244.944 197.417L0.0637135 197.753C-0.858642 176.73 8.23345 159.943 27.34 151.642C42.0163 145.265 39.2002 132.964 36.074 119.308C33.0951 106.296 29.8347 92.0544 41.1584 80.5365C46.3204 75.2859 50.5091 71.2031 53.9918 67.8085C65.2137 56.8703 69.1067 53.0758 74.6208 40.3719Z" fill="#FFE300"/>
<path d="M238.202 200C156.397 85.6189 54.1169 149.719 20.2247 200H129.213H238.202Z" fill="white"/>
<path fill-rule="evenodd" clip-rule="evenodd" d="M111.476 140.475C73.476 148.415 41.327 175.678 23.3539 198.449C22.9695 198.936 22.2629 199.019 21.7758 198.635C21.2887 198.25 21.2055 197.544 21.59 197.057C39.7563 174.041 72.3229 146.361 111.016 138.276C130.388 134.228 151.291 135.095 172.65 143.917C194.002 152.737 215.742 169.477 236.848 197.07C237.225 197.563 237.131 198.268 236.638 198.645C236.145 199.022 235.44 198.928 235.063 198.435C214.142 171.085 192.701 154.631 171.792 145.994C150.89 137.361 130.451 136.51 111.476 140.475Z" fill="#0F172A"/>
<path fill-rule="evenodd" clip-rule="evenodd" d="M90.7669 144.971C91.3726 144.836 91.973 145.217 92.1079 145.823C96.1165 163.824 102.397 175.682 109.704 183.029C116.988 190.354 125.353 193.258 133.708 193.258C133.727 193.258 133.746 193.259 133.764 193.26C142.401 193.696 150.225 191.092 156.458 183.884C162.738 176.622 167.499 164.576 169.67 145.937C169.742 145.321 170.3 144.88 170.916 144.951C171.533 145.023 171.974 145.581 171.902 146.197C169.707 165.043 164.859 177.605 158.157 185.354C151.416 193.15 142.894 195.964 133.679 195.506C124.764 195.499 115.828 192.374 108.111 184.614C100.408 176.868 93.9802 164.569 89.9144 146.312C89.7795 145.706 90.1612 145.106 90.7669 144.971Z" fill="#0F172A"/>
<path fill-rule="evenodd" clip-rule="evenodd" d="M109.78 145.89L109.717 105.331L154.924 99.0542V145.89" fill="white"/>
<path fill-rule="evenodd" clip-rule="evenodd" d="M155.661 98.2068C155.906 98.4202 156.047 98.7292 156.047 99.0542V145.89C156.047 146.511 155.544 147.014 154.924 147.014C154.303 147.014 153.8 146.511 153.8 145.89V100.345L110.842 106.309L110.903 145.888C110.904 146.509 110.402 147.013 109.781 147.014C109.161 147.015 108.657 146.512 108.656 145.892L108.593 105.332C108.592 104.771 109.006 104.295 109.562 104.218L154.769 97.9412C155.091 97.8966 155.416 97.9934 155.661 98.2068Z" fill="#0F172A"/>
<mask id="mask0_3987_662" style="mask-type:alpha" maskUnits="userSpaceOnUse" x="109" y="99" width="46" height="70">
<path d="M109.717 105.331L154.924 99.0542L154.881 146.05C154.87 158.517 144.759 168.62 132.29 168.62C119.822 168.62 109.717 158.515 109.717 146.05V105.331Z" fill="white"/>
</mask>
<g mask="url(#mask0_3987_662)">
<path d="M149.479 134.778C182.375 134.778 209.043 110.086 209.043 79.6249C209.043 49.1665 182.375 24.4721 149.479 24.4721C116.582 24.4721 89.9145 49.1665 89.9145 79.6249C89.9145 110.086 116.582 134.778 149.479 134.778Z" fill="#0F172A"/>
</g>
<path fill-rule="evenodd" clip-rule="evenodd" d="M164.045 91.0112C158.46 91.0112 153.933 95.5387 153.933 101.124C153.933 106.708 158.46 111.236 164.045 111.236C169.63 111.236 174.157 106.708 174.157 101.124C174.157 95.5387 169.63 91.0112 164.045 91.0112ZM151.685 101.124C151.685 94.2976 157.219 88.764 164.045 88.764C170.871 88.764 176.404 94.2976 176.404 101.124C176.404 107.95 170.871 113.483 164.045 113.483C157.219 113.483 151.685 107.95 151.685 101.124Z" fill="#0F172A"/>
<path fill-rule="evenodd" clip-rule="evenodd" d="M152.959 38.7553L163.252 62.9935C172.364 84.4586 162.357 109.238 140.901 118.342C119.445 127.45 94.6651 117.432 85.5527 95.9665L75.2606 71.7283C66.1483 50.2654 76.155 25.4834 97.6112 16.38C119.067 7.27215 143.847 17.2924 152.959 38.7553Z" fill="white"/>
<path fill-rule="evenodd" clip-rule="evenodd" d="M151.925 39.1944C143.055 18.3021 118.935 8.5491 98.0502 17.4143L98.0501 17.4144C77.1657 26.2751 67.4249 50.3971 76.2949 71.2892L86.587 95.5274L86.587 95.5275C95.4571 116.422 119.578 126.173 140.462 117.308L140.462 117.307C161.347 108.447 171.087 84.3269 162.217 63.4325L151.925 39.1944L152.959 38.7553L151.925 39.1944ZM97.1722 15.3457C119.2 5.99518 144.639 16.2826 153.994 38.3162L164.286 62.5543L164.286 62.5544C173.641 84.5903 163.368 110.03 141.34 119.376C119.312 128.727 93.8732 118.442 84.5185 96.4057C84.5185 96.4056 84.5185 96.4056 84.5185 96.4056L74.2264 72.1675L74.2264 72.1674C64.8717 50.1337 75.1443 24.6918 97.1722 15.3457Z" fill="#0F172A"/>
<mask id="mask1_3987_662" style="mask-type:alpha" maskUnits="userSpaceOnUse" x="69" y="11" width="100" height="115">
<path d="M153.985 38.1855L165.034 64.3762C174.513 86.8473 164.107 112.791 141.79 122.322C119.475 131.854 93.6985 121.364 84.2192 98.8909L73.1685 72.7024C63.6892 50.2291 74.0953 24.2854 96.4124 14.7562C118.727 5.22476 144.504 15.7145 153.985 38.1855Z" fill="white"/>
</mask>
<g mask="url(#mask1_3987_662)">
<path fill-rule="evenodd" clip-rule="evenodd" d="M84.5243 0.934553C87.3579 3.85367 89.921 7.02936 92.1818 10.4219C111.883 1.80978 143.326 -7.20549 162.761 -0.120085C189.663 9.68777 209.064 29.1166 199.361 36.7975C193.787 41.2102 186.889 47.1403 179.795 49.5401C158.829 56.6334 126.868 57.069 103.284 48.0285C103.074 64.3635 96.8028 80.5221 84.4781 92.7578C79.2973 97.9126 73.2669 102.113 66.6593 105.168C53.6331 111.19 44.0776 53.3836 49.9993 20.6195C54.9133 -6.5618 73.1697 -10.7775 84.5243 0.934553Z" fill="#FFE300"/>
</g>
<path fill-rule="evenodd" clip-rule="evenodd" d="M127.605 73.2552C128.113 72.8992 128.814 73.0226 129.17 73.5309L137.246 85.0612C137.422 85.3116 137.487 85.6227 137.428 85.9226C137.369 86.2226 137.191 86.4856 136.934 86.6509L131.866 89.9093C131.344 90.245 130.649 90.0939 130.313 89.572C129.978 89.05 130.129 88.3548 130.651 88.0192L134.735 85.393L127.329 74.8201C126.973 74.3118 127.097 73.6112 127.605 73.2552Z" fill="#0F172A"/>
<path d="M151.151 70.0879C153.881 68.9283 155.049 65.5283 153.762 62.4924C152.472 59.4587 149.214 57.9373 146.483 59.0946C143.753 60.2542 142.584 63.6542 143.872 66.6901C145.162 69.7238 148.42 71.2452 151.151 70.0879Z" fill="#0058FF"/>
<path d="M108.926 87.7854C111.656 86.6259 112.825 83.2259 111.537 80.1899C110.247 77.1562 106.989 75.6349 104.259 76.7922C101.528 77.9517 100.36 81.3517 101.647 84.3877C102.937 87.4214 106.196 88.9427 108.926 87.7854Z" fill="#0058FF"/>
<path fill-rule="evenodd" clip-rule="evenodd" d="M141.06 100.833C141.179 101.442 140.783 102.032 140.174 102.152L128.691 104.411C128.082 104.53 127.491 104.134 127.371 103.525C127.252 102.916 127.648 102.325 128.257 102.206L139.74 99.9472C140.349 99.8274 140.94 100.224 141.06 100.833Z" fill="#0F172A"/>
<path fill-rule="evenodd" clip-rule="evenodd" d="M159.92 81.0335C157.53 84.302 152.554 89.8116 149.273 82.9687C146.53 76.5297 155.764 68.6635 161.254 73.3869C163.709 75.4998 161.82 78.3159 159.92 81.0335Z" fill="#F1DBE7"/>
<path fill-rule="evenodd" clip-rule="evenodd" d="M109.396 104.637C113.449 103.961 118.868 101.578 115.985 93.7326C113.529 87.0521 100.037 93.1431 101.859 100.166C102.674 103.308 106.065 105.122 109.396 104.637Z" fill="#F1DBE7"/>
<path fill-rule="evenodd" clip-rule="evenodd" d="M92.1349 113.483C86.55 113.483 82.0226 118.011 82.0226 123.595C82.0226 129.18 86.55 133.708 92.1349 133.708C97.7198 133.708 102.247 129.18 102.247 123.595C102.247 118.011 97.7198 113.483 92.1349 113.483ZM79.7754 123.595C79.7754 116.77 85.3089 111.236 92.1349 111.236C98.9609 111.236 104.494 116.77 104.494 123.595C104.494 130.421 98.9609 135.955 92.1349 135.955C85.3089 135.955 79.7754 130.421 79.7754 123.595Z" fill="#0F172A"/>
<path fill-rule="evenodd" clip-rule="evenodd" d="M84.6336 86.5373L79.8291 87.7575C78.3247 88.139 76.928 88.8608 75.7467 89.8674C74.5654 90.874 73.6311 92.1384 73.0158 93.5632C72.4004 94.988 72.1205 96.5351 72.1976 98.0852C72.2748 99.6353 72.7068 101.147 73.4606 102.504C75.34 105.894 78.1996 108.638 81.6647 110.377C85.1299 112.115 89.0393 112.766 92.8808 112.245L95.4044 111.901" fill="white"/>
<path fill-rule="evenodd" clip-rule="evenodd" d="M85.7226 86.2607C85.8754 86.8622 85.5117 87.4736 84.9102 87.6263L80.1057 88.8466C78.7681 89.1857 77.5258 89.8276 76.4755 90.7226C75.4251 91.6176 74.5944 92.7419 74.0473 94.0087C73.5001 95.2755 73.2513 96.6511 73.3199 98.0293C73.3884 99.4076 73.7726 100.752 74.4428 101.958C76.2125 105.151 78.9056 107.736 82.1685 109.372C85.4314 111.009 89.1125 111.622 92.7298 111.132L95.2527 110.788C95.8676 110.704 96.4339 111.135 96.5177 111.75C96.6015 112.365 96.171 112.931 95.5561 113.015L93.0325 113.358C88.9667 113.91 84.8284 113.221 81.161 111.381C77.4935 109.541 74.467 106.637 72.4779 103.048C71.6409 101.541 71.1611 99.8626 71.0754 98.141C70.9898 96.4191 71.3007 94.7005 71.9842 93.1177C72.6678 91.535 73.7057 90.1303 75.018 89.0122C76.3302 87.8941 77.8815 87.0923 79.5525 86.6685C79.5527 86.6685 79.5524 86.6686 79.5525 86.6685L84.357 85.4483C84.9585 85.2955 85.5699 85.6593 85.7226 86.2607ZM82.1384 95.3772C82.7097 95.1347 83.3693 95.4012 83.6117 95.9724L85.7029 100.899C85.7147 100.924 85.7256 100.95 85.7355 100.976L86.9646 103.871C87.207 104.443 86.9405 105.102 86.3693 105.345C85.7981 105.587 85.1385 105.321 84.896 104.749L83.86 102.309L79.4199 101.043C78.8232 100.872 78.4773 100.251 78.6475 99.6539C78.8176 99.0572 79.4393 98.7113 80.0361 98.8815L82.7315 99.65L81.5432 96.8505C81.3007 96.2793 81.5672 95.6197 82.1384 95.3772Z" fill="#0F172A"/>
</svg>
