<svg width="282" height="252" viewBox="0 0 282 252" fill="none" xmlns="http://www.w3.org/2000/svg">
<path fill-rule="evenodd" clip-rule="evenodd" d="M72.4941 49.7537C60.3591 48.0417 51.0241 37.6113 51.0241 25C51.0241 11.1929 62.2133 0 76.0159 0C88.9545 0 99.5966 9.83552 100.878 22.4401C107.627 19.1511 115.598 17.2625 125.173 16.7918C152.873 15.4228 174.406 32.4376 181.11 55.9908C185.972 73.074 195.616 79.1134 206.127 85.6958C214.696 91.0617 223.841 96.7886 231.441 109.153C237.534 119.065 236.962 130.048 235.604 140.958L235.37 142.776C235.264 143.586 235.155 144.395 235.046 145.203C234.952 145.905 234.857 146.606 234.765 147.306L234.528 149.111C232.409 165.618 234.5 181.292 256.502 192.06C277.256 202.219 278.533 215.524 280.112 231.973C280.562 236.661 281.036 241.605 281.993 246.804L0.078827 247.219C-1.06209 221.206 9.18481 200.434 32.8189 190.163C50.9729 182.273 47.4895 167.052 43.6225 150.155C39.9378 134.054 35.9048 116.431 49.9117 102.179C68.1756 83.5959 68.4953 76.8358 68.9128 68.004C69.1378 63.246 69.3912 57.8868 72.4941 49.7537Z" fill="#FFE300"/>
<path d="M268.656 252C177.211 114.62 62.8778 191.609 24.9918 252H146.824H268.656Z" fill="white"/>
<path d="M27.5038 246.874C67.9019 191.882 172.187 114.892 266.144 246.874" stroke="#0F172A" stroke-width="2" stroke-linecap="round" stroke-linejoin="round"/>
<path d="M193.296 183.583C188.413 228.604 171.815 242.695 151.848 241.612C132.532 241.612 113.146 228.345 104.12 184.796" stroke="#0F172A" stroke-width="2" stroke-linecap="round" stroke-linejoin="round"/>
<path fill-rule="evenodd" clip-rule="evenodd" d="M118.799 185.046L118.721 134.859L174.64 127.093V185.046" fill="white"/>
<path d="M118.799 185.046L118.721 134.859L174.64 127.093V185.046" stroke="#0F172A" stroke-width="2" stroke-linecap="round" stroke-linejoin="round"/>
<mask id="mask0_3989_718" style="mask-type:alpha" maskUnits="userSpaceOnUse" x="118" y="127" width="57" height="87">
<path d="M118.721 134.859L174.64 127.093L174.587 185.243C174.574 200.67 162.068 213.172 146.643 213.172C131.221 213.172 118.721 200.667 118.721 185.243V134.859Z" fill="white"/>
</mask>
<g mask="url(#mask0_3989_718)">
<path d="M167.905 171.296C208.597 171.296 241.584 140.742 241.584 103.051C241.584 65.3629 208.597 34.8068 167.905 34.8068C127.213 34.8068 94.2265 65.3629 94.2265 103.051C94.2265 140.742 127.213 171.296 167.905 171.296Z" fill="#0F172A"/>
</g>
<ellipse cx="184.521" cy="128.25" rx="12.4959" ry="12.5" stroke="#0F172A" stroke-width="2"/>
<path fill-rule="evenodd" clip-rule="evenodd" d="M172.211 52.4804L184.942 82.4721C196.213 109.032 183.835 139.694 157.295 150.959C130.754 162.228 100.103 149.832 88.8312 123.272L76.1002 93.2803C64.8286 66.7227 77.2065 36.0581 103.747 24.7939C130.288 13.5241 160.939 25.9228 172.211 52.4804Z" fill="white" stroke="#0F172A" stroke-width="2" stroke-linecap="round" stroke-linejoin="round"/>
<path fill-rule="evenodd" clip-rule="evenodd" d="M182.527 70.9814C159.37 74.0731 132.255 72.1957 110.764 63.9548C110.504 84.1673 102.747 104.162 87.5017 119.302C86.6944 120.105 85.8703 120.89 85.0303 121.656L73.3506 94.1654C61.5228 66.3226 74.5115 34.174 102.362 22.3646C130.212 10.5494 162.376 23.5482 174.204 51.391L182.527 70.9814Z" fill="#FFE300"/>
<path d="M141.645 96.3084L151.636 110.576L145.367 114.608" stroke="#0F172A" stroke-width="2" stroke-linecap="round" stroke-linejoin="round"/>
<path d="M169.973 93.7505C173.351 92.3157 174.796 88.1086 173.203 84.352C171.608 80.5982 167.577 78.7157 164.2 80.1477C160.823 81.5825 159.377 85.7896 160.97 89.5462C162.565 93.3 166.596 95.1825 169.973 93.7505Z" fill="#0058FF"/>
<path d="M117.743 113.149C121.12 111.714 122.566 107.507 120.973 103.75C119.378 99.9966 115.347 98.1141 111.97 99.5462C108.592 100.981 107.147 105.188 108.74 108.945C110.335 112.698 114.366 114.581 117.743 113.149Z" fill="#0058FF"/>
<path d="M141 134C150.388 134 158 130.419 158 126" stroke="#0F172A" stroke-width="2" stroke-linecap="round" stroke-linejoin="round"/>
<path fill-rule="evenodd" clip-rule="evenodd" d="M180.821 107.294C177.865 111.339 171.709 118.156 167.651 109.689C164.258 101.721 175.68 91.988 182.47 97.8326C185.508 100.447 183.171 103.932 180.821 107.294Z" fill="#F1DBE7"/>
<path fill-rule="evenodd" clip-rule="evenodd" d="M118.324 134.001C123.337 133.164 130.041 130.215 126.474 120.508C123.437 112.241 106.748 119.778 109.001 128.469C110.01 132.356 114.205 134.6 118.324 134.001Z" fill="#F1DBE7"/>
<ellipse cx="98.0697" cy="156.056" rx="12.4959" ry="12.5" stroke="#0F172A" stroke-width="2"/>
<path fill-rule="evenodd" clip-rule="evenodd" d="M87.6942 111.605L81.7513 113.114C79.8904 113.586 78.1627 114.48 76.7015 115.725C75.2403 116.971 74.0845 118.535 73.3234 120.298C72.5622 122.061 72.216 123.975 72.3114 125.894C72.4068 127.812 72.9413 129.682 73.8736 131.361C76.1984 135.556 79.7355 138.952 84.0218 141.103C88.3082 143.253 93.1438 144.059 97.8957 143.415L101.017 142.989" fill="white"/>
<path d="M87.6942 111.605L81.7513 113.114C79.8904 113.586 78.1627 114.48 76.7015 115.725C75.2403 116.971 74.0845 118.535 73.3234 120.298C72.5622 122.061 72.216 123.975 72.3114 125.894C72.4068 127.812 72.9413 129.682 73.8736 131.361C76.1984 135.556 79.7355 138.952 84.0218 141.103C88.3082 143.253 93.1438 144.059 97.8957 143.415L101.017 142.989M85.1508 123.822L89.2982 133.596M87.7582 129.965L81.6262 128.216" stroke="#0F172A" stroke-width="2" stroke-linecap="round" stroke-linejoin="round"/>
</svg>
