<svg width="109" height="89" viewBox="0 0 109 89" fill="none" xmlns="http://www.w3.org/2000/svg">
<path fill-rule="evenodd" clip-rule="evenodd" d="M33.2062 17.9655C28.6075 17.5636 25 13.7031 25 9C25 4.02944 29.0294 0 34 0C37.8737 0 41.1758 2.44732 42.4446 5.88015C43.1607 6.1975 43.6704 6.60276 43.7274 7.21896C46.1797 6.00088 49.084 5.30253 52.5837 5.13054C62.5486 4.63821 70.2952 10.7573 72.7069 19.2278C73.0067 25.2702 76.7562 27.4334 81.065 29.9194C84.4329 31.8625 88.1426 34.0028 90.8139 38.3468C93.0057 41.9112 92.8 45.8613 92.3113 49.7848L92.2273 50.4388C92.189 50.7296 92.1498 51.0202 92.1108 51.3104C92.0767 51.5633 92.0427 51.8158 92.0093 52.0679L91.9244 52.7171C91.162 58.6535 91.914 64.2903 99.8296 68.1629C107.296 71.8163 107.755 76.6011 108.323 82.5169C108.485 84.203 108.656 85.9809 109 87.8507L0.0283525 88C-0.382096 78.6447 3.66388 71.1745 12.1663 67.4806C18.6972 64.643 17.4441 59.169 16.0529 53.0923C14.7273 47.3019 13.2765 40.9642 18.3155 35.8388C20.6126 33.5022 22.4765 31.6854 24.0264 30.1748C29.0201 25.3073 30.7525 23.6187 33.2062 17.9655Z" fill="#FFE300"/>
<path d="M106 89C69.5969 38.1004 24.082 66.6252 9 89H57.5H106Z" fill="white"/>
<path fill-rule="evenodd" clip-rule="evenodd" d="M49.6069 62.5115C32.6968 66.0449 18.3905 78.1768 10.3925 88.3098C10.2214 88.5265 9.907 88.5636 9.69024 88.3925C9.47348 88.2214 9.43646 87.907 9.60755 87.6902C17.6915 77.4483 32.1837 65.1305 49.4023 61.5327C58.0229 59.7314 67.3244 60.1172 76.8292 64.0431C86.3308 67.9678 96.0052 75.4174 105.397 87.6962C105.565 87.9156 105.523 88.2294 105.304 88.3971C105.084 88.5649 104.771 88.5231 104.603 88.3038C95.2933 76.1328 85.7521 68.8107 76.4475 64.9674C67.146 61.1254 58.0507 60.7472 49.6069 62.5115Z" fill="#0F172A"/>
<path fill-rule="evenodd" clip-rule="evenodd" d="M40.3913 64.512C40.6608 64.4519 40.928 64.6218 40.988 64.8913C42.7719 72.9016 45.5669 78.1785 48.8183 81.448C52.0598 84.7074 55.782 86 59.5 86C59.5084 86 59.5168 86.0002 59.5252 86.0006C63.3684 86.1946 66.85 85.0359 69.6237 81.8284C72.4185 78.5966 74.5369 73.2361 75.5033 64.9421C75.5353 64.6678 75.7836 64.4714 76.0579 64.5034C76.3321 64.5353 76.5286 64.7836 76.4966 65.0579C75.5194 73.4441 73.3622 79.0342 70.3801 82.4826C67.38 85.9518 63.5881 87.204 59.4874 87C55.52 86.9971 51.5435 85.6064 48.1093 82.1531C44.6814 78.7063 41.8212 73.2332 40.0119 65.1087C39.9519 64.8391 40.1218 64.572 40.3913 64.512Z" fill="#0F172A"/>
<path fill-rule="evenodd" clip-rule="evenodd" d="M48.852 64.9211L48.824 46.8721L68.941 44.0791V64.9211" fill="white"/>
<path fill-rule="evenodd" clip-rule="evenodd" d="M69.2693 43.702C69.3784 43.797 69.441 43.9345 69.441 44.0791V64.9211C69.441 65.1972 69.2171 65.4211 68.941 65.4211C68.6648 65.4211 68.441 65.1972 68.441 64.9211V44.6533L49.3247 47.3074L49.352 64.9203C49.3524 65.1965 49.1289 65.4207 48.8528 65.4211C48.5766 65.4215 48.3524 65.198 48.352 64.9219L48.324 46.8729C48.3236 46.623 48.5077 46.4112 48.7552 46.3769L68.8722 43.5839C69.0154 43.564 69.1603 43.6071 69.2693 43.702Z" fill="#0F172A"/>
<mask id="mask0_3987_662" style="mask-type:alpha" maskUnits="userSpaceOnUse" x="48" y="44" width="21" height="32">
<path d="M48.824 46.8721L68.941 44.0791L68.922 64.9921C68.917 70.5401 64.418 75.0361 58.869 75.0361C53.321 75.0361 48.824 70.5391 48.824 64.9921V46.8721Z" fill="white"/>
</mask>
<g mask="url(#mask0_3987_662)">
<path d="M66.518 59.9761C81.157 59.9761 93.024 48.9881 93.024 35.4331C93.024 21.8791 81.157 10.8901 66.518 10.8901C51.879 10.8901 40.012 21.8791 40.012 35.4331C40.012 48.9881 51.879 59.9761 66.518 59.9761Z" fill="#0F172A"/>
</g>
<path fill-rule="evenodd" clip-rule="evenodd" d="M73 40.5C70.5147 40.5 68.5 42.5147 68.5 45C68.5 47.4853 70.5147 49.5 73 49.5C75.4853 49.5 77.5 47.4853 77.5 45C77.5 42.5147 75.4853 40.5 73 40.5ZM67.5 45C67.5 41.9624 69.9624 39.5 73 39.5C76.0376 39.5 78.5 41.9624 78.5 45C78.5 48.0376 76.0376 50.5 73 50.5C69.9624 50.5 67.5 48.0376 67.5 45Z" fill="#0F172A"/>
<path fill-rule="evenodd" clip-rule="evenodd" d="M68.067 17.2461L72.647 28.0321C76.702 37.5841 72.249 48.6111 62.701 52.6621C53.153 56.7151 42.126 52.2571 38.071 42.7051L33.491 31.9191C29.436 22.3681 33.889 11.3401 43.437 7.2891C52.985 3.2361 64.012 7.6951 68.067 17.2461Z" fill="white"/>
<path fill-rule="evenodd" clip-rule="evenodd" d="M67.6067 17.4415C63.6595 8.14444 52.9259 3.80435 43.6324 7.74935L43.6323 7.74939C34.3387 11.6924 30.0041 22.4267 33.9512 31.7237L38.5312 42.5097L38.5312 42.5097C42.4784 51.8077 53.212 56.1469 62.5056 52.2019L62.5057 52.2018C71.7992 48.2588 76.1339 37.5255 72.1867 28.2275L67.6067 17.4415L68.067 17.2461L67.6067 17.4415ZM43.2416 6.82885C53.044 2.66786 64.3644 7.24577 68.5272 17.0507L73.1072 27.8367L73.1072 27.8367C77.27 37.6427 72.6987 48.9634 62.8963 53.1224C53.094 57.2833 41.7736 52.7065 37.6107 42.9005C37.6107 42.9005 37.6107 42.9005 37.6107 42.9005L33.0308 32.1145L33.0307 32.1145C28.8679 22.3095 33.4392 10.9878 43.2416 6.82885Z" fill="#0F172A"/>
<mask id="mask1_3987_662" style="mask-type:alpha" maskUnits="userSpaceOnUse" x="31" y="5" width="44" height="51">
<path d="M68.5235 16.9925L73.44 28.6474C77.6583 38.647 73.0276 50.192 63.0965 54.4335C53.1664 58.675 41.6958 54.0071 37.4776 44.0065L32.56 32.3526C28.3417 22.352 32.9724 10.807 42.9035 6.56653C52.8336 2.32502 64.3042 6.99294 68.5235 16.9925Z" fill="white"/>
</mask>
<g mask="url(#mask1_3987_662)">
<path fill-rule="evenodd" clip-rule="evenodd" d="M37.6133 0.415877C38.8743 1.71488 40.0149 3.12807 41.0209 4.63777C49.7881 0.805352 63.7802 -3.20644 72.4285 -0.0534371C84.3999 4.31106 93.0337 12.9569 88.7157 16.3749C86.2354 18.3385 83.1657 20.9775 80.0087 22.0454C70.6789 25.2018 56.4565 25.3957 45.9613 21.3727C45.868 28.6418 43.0772 35.8324 37.5928 41.2772C35.2873 43.5711 32.6038 45.4401 29.6634 46.7998C23.8667 49.4795 19.6146 23.7557 22.2497 9.17567C24.4364 -2.92 32.5605 -4.79598 37.6133 0.415877Z" fill="#FFE300"/>
</g>
<path fill-rule="evenodd" clip-rule="evenodd" d="M56.7842 32.5986C57.0103 32.4401 57.3221 32.4951 57.4806 32.7212L61.0746 37.8522C61.1526 37.9637 61.1819 38.1021 61.1556 38.2356C61.1294 38.3691 61.0499 38.4861 60.9355 38.5597L58.6805 40.0097C58.4482 40.159 58.1388 40.0918 57.9895 39.8595C57.8401 39.6273 57.9073 39.3179 58.1396 39.1685L59.9571 37.9999L56.6615 33.295C56.5031 33.0688 56.558 32.757 56.7842 32.5986Z" fill="#0F172A"/>
<path d="M67.262 31.1891C68.477 30.6731 68.997 29.1601 68.424 27.8091C67.85 26.4591 66.4 25.7821 65.185 26.2971C63.97 26.8131 63.45 28.3261 64.023 29.6771C64.597 31.0271 66.047 31.7041 67.262 31.1891Z" fill="#0058FF"/>
<path d="M48.4721 39.0645C49.6871 38.5485 50.2071 37.0355 49.6341 35.6845C49.0601 34.3345 47.6101 33.6575 46.3951 34.1725C45.1801 34.6885 44.6601 36.2015 45.2331 37.5525C45.8071 38.9025 47.2571 39.5795 48.4721 39.0645Z" fill="#0058FF"/>
<path fill-rule="evenodd" clip-rule="evenodd" d="M62.7715 44.8706C62.8248 45.1416 62.6484 45.4044 62.3774 45.4577L57.2674 46.4627C56.9965 46.516 56.7336 46.3395 56.6803 46.0686C56.627 45.7976 56.8035 45.5348 57.0744 45.4815L62.1844 44.4765C62.4554 44.4232 62.7182 44.5997 62.7715 44.8706Z" fill="#0F172A"/>
<path fill-rule="evenodd" clip-rule="evenodd" d="M71.1645 36.0599C70.1009 37.5144 67.8864 39.9661 66.4264 36.9211C65.2061 34.0557 69.3151 30.5553 71.7579 32.6572C72.8506 33.5974 72.0099 34.8506 71.1645 36.0599Z" fill="#F1DBE7"/>
<path fill-rule="evenodd" clip-rule="evenodd" d="M48.6811 46.5637C50.4847 46.2626 52.8962 45.2021 51.6132 41.711C50.5206 38.7382 44.5165 41.4487 45.3273 44.574C45.6899 45.972 47.1991 46.7792 48.6811 46.5637Z" fill="#F1DBE7"/>
<path fill-rule="evenodd" clip-rule="evenodd" d="M41.0001 50.5C38.5148 50.5 36.5001 52.5147 36.5001 55C36.5001 57.4853 38.5148 59.5 41.0001 59.5C43.4853 59.5 45.5001 57.4853 45.5001 55C45.5001 52.5147 43.4853 50.5 41.0001 50.5ZM35.5001 55C35.5001 51.9624 37.9625 49.5 41.0001 49.5C44.0376 49.5 46.5001 51.9624 46.5001 55C46.5001 58.0376 44.0376 60.5 41.0001 60.5C37.9625 60.5 35.5001 58.0376 35.5001 55Z" fill="#0F172A"/>
<path fill-rule="evenodd" clip-rule="evenodd" d="M37.662 38.5091L35.524 39.0521C34.8545 39.2218 34.233 39.5431 33.7073 39.991C33.1816 40.4389 32.7658 41.0016 32.492 41.6356C32.2182 42.2697 32.0936 42.9581 32.1279 43.6479C32.1623 44.3377 32.3545 45.0104 32.69 45.6141C33.5263 47.123 34.7988 48.3441 36.3408 49.1176C37.8828 49.8911 39.6225 50.1809 41.332 49.9491L42.455 49.7961" fill="white"/>
<path fill-rule="evenodd" clip-rule="evenodd" d="M38.1466 38.386C38.2146 38.6537 38.0527 38.9257 37.785 38.9937L35.647 39.5367C35.0518 39.6876 34.499 39.9733 34.0316 40.3716C33.5642 40.7698 33.1945 41.2701 32.951 41.8339C32.7076 42.3976 32.5968 43.0097 32.6273 43.6231C32.6578 44.2364 32.8288 44.8345 33.127 45.3713C33.9146 46.792 35.113 47.9423 36.565 48.6707C38.017 49.399 39.6551 49.6719 41.2648 49.4536L42.3875 49.3007C42.6611 49.2634 42.9131 49.455 42.9504 49.7286C42.9877 50.0022 42.7961 50.2542 42.5225 50.2915L41.3995 50.4445C39.5902 50.6899 37.7487 50.3832 36.1166 49.5645C34.4846 48.7458 33.1378 47.4534 32.2526 45.8565C31.8802 45.186 31.6667 44.4388 31.6286 43.6728C31.5904 42.9065 31.7288 42.1417 32.033 41.4374C32.3372 40.7331 32.799 40.108 33.383 39.6104C33.9669 39.1129 34.6573 38.7561 35.4009 38.5675C35.4009 38.5675 35.4008 38.5675 35.4009 38.5675L37.5389 38.0245C37.8065 37.9565 38.0786 38.1184 38.1466 38.386ZM36.5516 42.4429C36.8058 42.335 37.0993 42.4536 37.2072 42.7077L38.1378 44.9001C38.143 44.9113 38.1479 44.9227 38.1523 44.9342L38.6992 46.2227C38.8071 46.4769 38.6885 46.7705 38.4343 46.8784C38.1801 46.9863 37.8866 46.8677 37.7787 46.6135L37.3177 45.5273L35.3419 44.9639C35.0763 44.8882 34.9224 44.6116 34.9981 44.346C35.0738 44.0804 35.3505 43.9266 35.6161 44.0023L36.8155 44.3443L36.2867 43.0985C36.1788 42.8443 36.2974 42.5507 36.5516 42.4429Z" fill="#0F172A"/>
</svg>
